<svg width="28" height="24" viewBox="0 0 28 24" fill="none" xmlns="http://www.w3.org/2000/svg">
<path fill-rule="evenodd" clip-rule="evenodd" d="M27.5 12C27.5 12.4052 27.3361 12.7931 27.0456 13.0755L16.7599 23.0755C16.1659 23.653 15.2163 23.6396 14.6388 23.0456C14.0613 22.4516 14.0747 21.502 14.6687 20.9245L22.3053 13.5L2 13.5C1.17157 13.5 0.5 12.8284 0.5 12C0.5 11.1716 1.17157 10.5 2 10.5L22.3053 10.5L14.6687 3.07549C14.0747 2.49801 14.0613 1.54836 14.6388 0.954383C15.2163 0.360405 16.1659 0.34703 16.7599 0.924509L27.0456 10.9245C27.3361 11.2069 27.5 11.5949 27.5 12Z" fill="white"/>
</svg>
