<svg width="21" height="26" viewBox="0 0 21 26" fill="none" xmlns="http://www.w3.org/2000/svg">
<path fill-rule="evenodd" clip-rule="evenodd" d="M0.943359 9.88921C0.943359 4.51329 5.31369 0.140625 10.6885 0.140625C16.0632 0.140625 20.4336 4.51329 20.4336 9.88921C20.4336 13.8152 18.3015 17.5854 16.2553 20.3229C14.1866 23.0904 12.0776 24.9704 11.8846 25.1403L11.8846 25.1403C11.5429 25.4413 11.1146 25.592 10.6885 25.592C10.2621 25.592 9.83393 25.4411 9.49244 25.1404L10.1534 24.3899L9.49247 25.1404C9.49246 25.1404 9.49245 25.1404 9.49244 25.1404C9.29919 24.9702 7.19022 23.0902 5.12163 20.3228C3.07541 17.5853 0.943359 13.8151 0.943359 9.88921ZM10.6885 3.7601C7.31214 3.7601 4.56284 6.51006 4.56284 9.88921C4.56284 12.306 5.77354 14.8751 7.30033 17.1258C8.46922 18.8488 9.76873 20.3063 10.6885 21.2569C11.6082 20.3062 12.9077 18.8488 14.0766 17.1257C15.6034 14.875 16.8141 12.306 16.8141 9.88921C16.8141 6.51006 14.0648 3.7601 10.6885 3.7601Z" fill="white"/>
<path fill-rule="evenodd" clip-rule="evenodd" d="M5.64062 9.88992C5.64062 7.09667 7.89828 4.81445 10.6892 4.81445C13.4802 4.81445 15.7379 7.09667 15.7379 9.88992C15.7379 12.6833 13.4802 14.9654 10.6892 14.9654C7.8983 14.9654 5.64062 12.6833 5.64062 9.88992ZM10.6892 8.43393C9.91237 8.43393 9.26003 9.07765 9.26003 9.88992C9.26003 10.7022 9.91235 11.3459 10.6892 11.3459C11.4661 11.3459 12.1185 10.7022 12.1185 9.88992C12.1185 9.07759 11.4661 8.43393 10.6892 8.43393Z" fill="white"/>
</svg>
