<svg width="45" height="45" viewBox="0 0 45 45" fill="none" xmlns="http://www.w3.org/2000/svg">
<path d="M19.3231 38.6093C15.5998 38.6093 11.9602 37.5053 8.86445 35.4368C5.7687 33.3683 3.35585 30.428 1.93103 26.9883C0.506202 23.5485 0.133403 19.7633 0.859778 16.1117C1.58615 12.46 3.37905 9.10568 6.01178 6.47296C8.6445 3.84023 11.9988 2.04733 15.6505 1.32096C19.3021 0.594584 23.0873 0.967384 26.5271 2.39221C29.9668 3.81703 32.9071 6.22988 34.9756 9.32563C37.0441 12.4214 38.1481 16.061 38.1481 19.7843C38.1481 22.2563 37.6611 24.7043 36.7151 26.9883C35.7691 29.2723 34.3823 31.3475 32.6343 33.0955C30.8863 34.8435 28.8111 36.2303 26.5271 37.1763C24.2431 38.1223 21.7951 38.6093 19.3231 38.6093ZM19.3231 4.73423C16.3564 4.73423 13.4563 5.61398 10.9895 7.26221C8.52278 8.91041 6.60018 11.2531 5.46488 13.994C4.32955 16.7349 4.0325 19.7508 4.61128 22.6605C5.19005 25.5703 6.61868 28.243 8.71645 30.3408C10.8143 32.4385 13.487 33.8673 16.3967 34.446C19.3063 35.0248 22.3223 34.7278 25.0633 33.5925C27.8041 32.457 30.1468 30.5345 31.7951 28.0678C33.4433 25.601 34.3231 22.701 34.3231 19.7343C34.3231 15.756 32.7428 11.9407 29.9296 9.12763C27.1166 6.31458 23.3013 4.73423 19.3231 4.73423Z" fill="black"/>
<path d="M42.3979 44.7343C42.1517 44.7353 41.9074 44.6873 41.6799 44.5928C41.4524 44.4986 41.2459 44.3596 41.0729 44.1843L30.7479 33.8593C30.4167 33.5038 30.2364 33.0336 30.2449 32.5478C30.2534 32.0621 30.4504 31.5988 30.7939 31.2551C31.1374 30.9116 31.6009 30.7148 32.0867 30.7063C32.5724 30.6978 33.0424 30.8781 33.3979 31.2093L43.7229 41.5343C44.0739 41.8858 44.2712 42.3623 44.2712 42.8593C44.2712 43.3561 44.0739 43.8326 43.7229 44.1843C43.5499 44.3596 43.3434 44.4986 43.1159 44.5928C42.8884 44.6873 42.6442 44.7353 42.3979 44.7343Z" fill="black"/>
<path d="M19.2729 27.8594C18.7777 27.8529 18.3044 27.6534 17.9542 27.3031C17.6039 26.9529 17.4044 26.4796 17.3979 25.9844V13.4844C17.3979 12.9871 17.5954 12.5102 17.9472 12.1585C18.2987 11.8069 18.7757 11.6094 19.2729 11.6094C19.7702 11.6094 20.2472 11.8069 20.5987 12.1585C20.9504 12.5102 21.1479 12.9871 21.1479 13.4844V25.9844C21.1414 26.4796 20.9419 26.9529 20.5917 27.3031C20.2414 27.6534 19.7682 27.8529 19.2729 27.8594Z" fill="black"/>
<path d="M25.5229 21.6094H13.0229C12.5257 21.6094 12.0487 21.4119 11.6971 21.0601C11.3455 20.7086 11.1479 20.2316 11.1479 19.7344C11.1479 19.2371 11.3455 18.7601 11.6971 18.4086C12.0487 18.0569 12.5257 17.8594 13.0229 17.8594H25.5229C26.0202 17.8594 26.4972 18.0569 26.8487 18.4086C27.2004 18.7601 27.3979 19.2371 27.3979 19.7344C27.3979 20.2316 27.2004 20.7086 26.8487 21.0601C26.4972 21.4119 26.0202 21.6094 25.5229 21.6094Z" fill="black"/>
</svg>
