<svg width="27" height="26" viewBox="0 0 27 26" fill="none" xmlns="http://www.w3.org/2000/svg">
<path fill-rule="evenodd" clip-rule="evenodd" d="M16.9137 3.95877C14.6645 3.44864 12.334 3.44864 10.0848 3.95877L9.53903 4.08255C8.24614 4.37579 7.07834 5.01674 6.1373 5.91115L12.079 10.2562C12.9309 10.8792 14.0675 10.8792 14.9195 10.2562L20.8612 5.91114C19.9202 5.01673 18.7524 4.37579 17.4595 4.08255L16.9137 3.95877ZM22.5793 8.37131L16.6904 12.6778C14.7838 14.072 12.2147 14.072 10.3081 12.6778L4.41919 8.37131C4.24491 8.77207 4.1031 9.19215 3.9973 9.62826C3.4358 11.9428 3.4358 14.3634 3.9973 16.6779C4.67548 19.4735 6.83332 21.61 9.53903 22.2236L10.0848 22.3474C12.334 22.8575 14.6645 22.8575 16.9137 22.3474L17.4595 22.2236C20.1652 21.61 22.323 19.4735 23.0012 16.6779C23.5627 14.3634 23.5627 11.9428 23.0012 9.62827C22.8954 9.19215 22.7536 8.77207 22.5793 8.37131ZM9.42121 1.03308C12.1072 0.42387 14.8913 0.42387 17.5773 1.03308L18.123 1.15686C21.9695 2.02926 24.9772 5.04844 25.9166 8.92101C26.5909 11.7003 26.5909 14.6059 25.9166 17.3852C24.9772 21.2578 21.9695 24.2769 18.123 25.1493L17.5773 25.2731C14.8913 25.8823 12.1072 25.8823 9.42121 25.2731L8.87546 25.1493C5.02903 24.2769 2.02132 21.2578 1.08186 17.3852C0.407609 14.6059 0.407609 11.7003 1.08186 8.921C2.02132 5.04843 5.02904 2.02926 8.87546 1.15686L9.42121 1.03308Z" fill="white"/>
</svg>
