<svg width="25" height="28" viewBox="0 0 25 28" fill="none" xmlns="http://www.w3.org/2000/svg">
<path fill-rule="evenodd" clip-rule="evenodd" d="M3.99384 4.03747C3.66711 7.34546 3.50752 10.6678 3.51567 13.9919C3.51567 18.4268 3.78484 21.9038 3.99384 23.9495C7.02142 22.5751 9.97806 21.0494 12.8526 19.3784C15.7361 17.7249 18.5347 15.9277 21.2379 13.9935C18.5351 12.0576 15.737 10.2582 12.8542 8.60222C9.97879 6.93367 7.02164 5.41018 3.99384 4.03747ZM0.977586 2.53647C1.02003 2.17681 1.14588 1.83203 1.3451 1.52959C1.54432 1.22715 1.81141 0.975416 2.1251 0.794429C2.43879 0.613442 2.79041 0.508207 3.15195 0.487106C3.5135 0.466005 3.87497 0.529621 4.20759 0.672888C5.88909 1.39172 9.65742 3.10014 14.4391 5.85989C19.2223 8.62122 22.5869 11.0326 24.0483 12.1267C25.296 13.0625 25.2992 14.9181 24.0499 15.8571C22.6028 16.9448 19.2793 19.3246 14.4391 22.1207C9.59409 24.9169 5.87009 26.6047 4.20442 27.3141C2.76992 27.9268 1.16442 26.9974 0.977586 25.4505C0.759086 23.6423 0.350586 19.5367 0.350586 13.9919C0.350586 8.45022 0.757502 4.34622 0.977586 2.53647Z" fill="white"/>
</svg>
