<svg width="67" height="67" viewBox="0 0 67 67" fill="none" xmlns="http://www.w3.org/2000/svg">
<path d="M56.6726 37.1463L58.206 34.1457L55.2053 35.668L52.8115 33.2853L53.341 36.6168L50.3184 38.1502L53.661 38.6798L54.2014 42.0224L55.7238 39.0106L59.0664 39.5292L56.6726 37.1463Z" fill="#FAE2BF"/>
<path d="M65.7527 40.9743L61.2186 36.4402L64.131 30.7147C64.9474 29.115 63.2375 27.4051 61.6379 28.2215L55.9123 31.1339L51.3783 26.5998C50.1097 25.3313 47.9474 26.4234 48.2452 28.2104L49.2491 34.5537L43.5236 37.455C41.9239 38.2714 42.299 40.6542 44.0751 40.941L50.4184 41.9449L51.4223 48.2882C51.6981 50.0643 54.081 50.4394 54.9083 48.8397L57.8207 43.1142L64.164 44.1181C65.9402 44.3831 67.0324 42.232 65.7527 40.9743ZM54.2025 42.0224L53.6729 38.6909L50.3414 38.1613L53.353 36.6279L52.8235 33.2964L55.2064 35.6793L58.218 34.1459L56.6845 37.1574L59.0674 39.5403L55.7359 39.0108L54.2025 42.0224Z" fill="#52A2E7"/>
<path d="M56.6726 11.1005L58.206 8.08879L55.2053 9.62223L52.8115 7.22839L53.341 10.5819L50.3184 12.1045L53.661 12.634L54.2014 15.9655L55.7238 12.9649L59.0664 13.4944L56.6726 11.1005Z" fill="#82C0E6"/>
<path d="M65.7512 14.9065L61.2282 10.3835L64.1296 4.66901C64.946 3.05845 63.2361 1.3484 61.6253 2.16477L55.9109 5.06611L51.3879 0.554206C50.1082 -0.725474 47.9459 0.377757 48.2328 2.16477L49.2367 8.49696L43.5223 11.3983C41.9117 12.2147 42.2977 14.6196 44.0738 14.8954L50.406 15.8993L51.4099 22.2204C51.6857 23.9965 54.0906 24.3826 54.907 22.7719L57.8083 17.0575L64.1405 18.0614C65.9168 18.3482 67.0198 16.1861 65.7512 14.9065ZM54.201 15.9655L53.6715 12.634L50.34 12.1044L53.3515 10.571L52.822 7.23947L55.2049 9.62238L58.2165 8.07785L56.6831 11.0894L59.066 13.4723L55.7344 12.9428L54.201 15.9655Z" fill="#52A2E7"/>
<path d="M31.1447 37.4663C31.1667 38.2936 31.7516 38.9666 32.5126 39.1762C31.8949 41.526 31.4867 43.9971 31.3763 46.6225C31.3321 47.6485 32.1376 48.4537 33.1744 48.5531C34.2114 48.6524 35.0609 47.7587 35.1049 46.7549C35.6896 31.2223 48.8946 20.003 49.0821 19.8376C49.8765 19.1757 49.9756 18.0064 49.3248 17.2121C48.6739 16.4177 47.4936 16.3186 46.6992 16.9694C46.269 17.3225 38.8556 23.5995 34.4981 33.517C32.1814 18.3373 20.1128 8.12205 19.5612 7.66966C18.7669 7.00772 17.5976 7.11813 16.9357 7.91232C16.2737 8.70668 16.3841 9.87596 17.1783 10.5379C17.3 10.6703 30.5601 21.8564 31.1447 37.4663Z" fill="#52A2E7"/>
<path d="M12.9542 29.1814L13.4838 25.8387L11.0899 28.2327L8.07817 26.6882L9.61161 29.7109L7.21777 32.0938L10.5493 31.5643L12.0938 34.5759L12.6234 31.2443L15.9549 30.7148L12.9542 29.1814Z" fill="#82C0E6"/>
<path d="M22.7391 29.9868L17.0578 27.0855L18.0617 20.7864C18.3375 18.9883 16.1752 17.8961 14.8955 19.1758L10.3836 23.6877L4.70229 20.7864C3.09172 19.97 1.37075 21.6799 2.19805 23.2906L5.08829 28.972L0.554206 33.495C-0.725475 34.7746 0.377757 36.9369 2.16477 36.6611L8.46386 35.6572L11.3652 41.3386C12.1816 42.9491 14.5974 42.5631 14.8733 40.787L15.8773 34.488L22.1764 33.484C23.9635 33.219 24.3497 30.803 22.7391 29.9868ZM12.0935 34.5758L10.5601 31.5643L7.22854 32.0938L9.61146 29.7109L8.07802 26.6993L11.0896 28.2327L13.4725 25.8498L12.943 29.1814L15.9546 30.7148L12.623 31.2443L12.0935 34.5758Z" fill="#52A2E7"/>
<path d="M46.6996 43.0372C46.3356 43.335 38.7568 49.7334 34.3883 59.8715C31.5421 45.4972 20.1132 36.032 19.5727 35.5907C18.7784 34.9398 17.6091 35.0612 16.9582 35.8555C16.3074 36.6499 16.4287 37.8192 17.2231 38.47C17.3555 38.5802 30.7038 49.601 31.2776 65.1998C31.3217 66.2037 32.1379 66.9979 33.1419 66.9979H34.4878C35.293 66.9979 36.0432 66.4684 36.2859 65.652C39.6174 53.9584 48.9613 46.0266 49.0938 45.9164C49.8881 45.2544 49.9873 44.0851 49.3364 43.2908C48.6632 42.4857 47.4828 42.3864 46.6996 43.0372Z" fill="#52A2E7"/>
</svg>
