<svg width="61" height="67" viewBox="0 0 61 67" fill="none" xmlns="http://www.w3.org/2000/svg">
<path d="M0 67H60.5686V19.1529C60.5686 12.0854 54.8439 6.36072 47.7764 6.36072H12.7922C5.72468 6.36072 0 12.0854 0 19.1529V67Z" fill="#F2EADF"/>
<path d="M0 18.3048V24.1708H60.5686V18.3048C60.5686 11.732 55.1973 6.36072 48.6245 6.36072H11.9441C5.37131 6.36072 0 11.732 0 18.3048Z" fill="#52A2E7"/>
<path d="M20.2711 18.4032C21.7339 16.9404 21.7339 14.5687 20.2711 13.1059C18.8083 11.6431 16.4366 11.6431 14.9738 13.1059C13.511 14.5687 13.511 16.9404 14.9738 18.4032C16.4366 19.866 18.8083 19.866 20.2711 18.4032Z" fill="#52A2E7"/>
<path d="M31.1863 19.4019C33.1996 18.9265 34.4463 16.9091 33.9709 14.8958C33.4955 12.8825 31.478 11.6357 29.4647 12.1111C27.4514 12.5865 26.2047 14.604 26.6801 16.6173C27.1555 18.6306 29.173 19.8773 31.1863 19.4019Z" fill="#52A2E7"/>
<path d="M43.907 19.4001C45.9203 18.9247 47.167 16.9072 46.6916 14.8939C46.2162 12.8806 44.1987 11.6339 42.1854 12.1093C40.1721 12.5847 38.9254 14.6022 39.4008 16.6155C39.8762 18.6288 41.8937 19.8755 43.907 19.4001Z" fill="#52A2E7"/>
<path d="M17.5972 0C16.113 0 14.8408 1.20148 14.8408 2.75633V14.4884C14.8408 15.9726 16.0423 17.2447 17.5972 17.2447C19.152 17.2447 20.3535 16.0432 20.3535 14.4884V2.75633C20.3535 1.27215 19.0813 0 17.5972 0Z" fill="#DEF4FF"/>
<path d="M43.0405 0C41.5563 0 40.2842 1.20148 40.2842 2.75633V14.4884C40.2842 15.9726 41.4857 17.2447 43.0405 17.2447C44.5954 17.2447 45.7968 16.0432 45.7968 14.4884V2.75633C45.7968 1.27215 44.5247 0 43.0405 0Z" fill="#DEF4FF"/>
<path d="M30.3188 0C28.8347 0 27.5625 1.20148 27.5625 2.75633V14.4884C27.5625 15.9726 28.764 17.2447 30.3188 17.2447C31.8737 17.2447 33.0752 16.0432 33.0752 14.4884V2.75633C33.0752 1.27215 31.803 0 30.3188 0Z" fill="#DEF4FF"/>
<path d="M47.6355 58.7311L42.8296 62.9716C42.4763 63.325 41.8402 63.0423 41.7695 62.5475L41.2041 56.1161C41.2041 56.0454 41.2041 55.9041 41.2748 55.8334L51.3106 31.0264C51.452 30.6731 51.8054 30.5317 52.1587 30.6731L57.53 32.864C57.8834 33.0053 58.0248 33.3587 57.8834 33.7121L47.7769 58.4484C47.7769 58.5897 47.7062 58.6604 47.6355 58.7311Z" fill="#FFDB86"/>
<path d="M55.4093 39.6488L48.9072 37.0338L51.0982 31.6625C51.3809 31.0264 52.0876 30.7437 52.7237 30.9557L56.9642 32.6519C57.6003 32.9346 57.883 33.6414 57.6709 34.2774L55.4093 39.6488Z" fill="#F27D75"/>
<path d="M47.7769 58.4484C47.7062 58.5897 47.6355 58.6604 47.5649 58.731L42.759 63.0422C42.4056 63.3956 41.7695 63.1129 41.6988 62.6182L41.2041 56.1161C41.2041 56.0454 41.2041 55.904 41.2748 55.8334V55.7627L47.7769 58.4484Z" fill="#FCE5B9"/>
<path d="M42.3346 31.3798H33.0762V37.2458H42.3346V31.3798Z" fill="#F27D75"/>
<path d="M42.3346 40.8502H33.0762V46.7162H42.3346V40.8502Z" fill="#F27D75"/>
<path d="M16.3961 31.3798H7.1377V37.2458H16.3961V31.3798Z" fill="#66ACE9"/>
<path d="M29.612 31.3798H20.3535V37.2458H29.612V31.3798Z" fill="#66ACE9"/>
<path d="M16.3961 40.8502H7.1377V46.7162H16.3961V40.8502Z" fill="#66ACE9"/>
<path d="M29.612 40.8502H20.3535V46.7162H29.612V40.8502Z" fill="#66ACE9"/>
<path d="M16.3961 50.3207H7.1377V56.1867H16.3961V50.3207Z" fill="#66ACE9"/>
<path d="M29.612 50.3207H20.3535V56.1867H29.612V50.3207Z" fill="#66ACE9"/>
</svg>
