<svg width="70" height="71" viewBox="0 0 70 71" fill="none" xmlns="http://www.w3.org/2000/svg">
<path d="M58.995 8.9071L35.0143 7.53677C33.8724 7.42258 32.8446 7.87936 32.0453 8.67871L1.66972 37.113C0.1852 38.5975 -0.728351 42.1375 0.756169 43.7362L26.9065 69.8866C28.3911 71.3711 30.9033 71.3711 32.502 69.8866L62.8776 39.511C63.677 38.7117 64.1337 37.6839 64.0195 36.542L62.6492 12.1045C62.535 10.1632 60.9363 9.02129 58.995 8.9071Z" fill="#52A2E7"/>
<path d="M58.9953 6.96582L35.0146 5.59549C33.8727 5.4813 32.8449 5.93807 32.0456 6.73743L1.67003 37.113C0.185511 38.5975 0.185511 41.1098 1.67003 42.7085L26.9069 67.9453C28.3914 69.4298 30.9036 69.4298 32.5024 67.9453L62.8779 37.5698C63.6773 36.7704 64.134 35.7427 64.0199 34.6007L62.6495 10.7342C62.5353 8.67872 60.9366 7.08001 58.9953 6.96582Z" fill="#52A2E7"/>
<path d="M26.9062 67.9453C28.3908 69.4298 30.903 69.4298 32.5017 67.9453L62.8773 37.5698C63.6767 36.7704 64.1334 35.7427 64.0192 34.6007L62.6489 10.7342C62.5347 8.79292 60.936 7.1942 58.9947 7.08001L35.014 5.59549C33.8721 5.4813 32.8443 5.93807 32.045 6.73743" fill="#52A2E7"/>
<path d="M57.5103 18.4994C57.5103 22.0394 54.6554 26.8356 51.0012 26.8356C47.4612 26.8356 44.4922 22.0394 44.4922 18.4994C44.4922 14.9594 47.347 11.9904 51.0012 11.9904C54.6554 11.9904 57.5103 14.9594 57.5103 18.4994Z" fill="#52A2E7"/>
<path d="M51.1155 25.0085C54.7103 25.0085 57.6245 22.0943 57.6245 18.4994C57.6245 14.9046 54.7103 11.9904 51.1155 11.9904C47.5206 11.9904 44.6064 14.9046 44.6064 18.4994C44.6064 22.0943 47.5206 25.0085 51.1155 25.0085Z" fill="#52A2E7"/>
<path d="M46.5479 13.9317C49.0601 11.4194 53.1711 11.4194 55.6834 13.9317C58.1956 16.4439 58.1956 20.5549 55.6834 23.0672" fill="#52A2E7"/>
<path d="M51.116 22.382C53.2603 22.382 54.9986 20.6437 54.9986 18.4994C54.9986 16.3551 53.2603 14.6168 51.116 14.6168C48.9717 14.6168 47.2334 16.3551 47.2334 18.4994C47.2334 20.6437 48.9717 22.382 51.116 22.382Z" fill="#EBF0F2"/>
<path d="M53.8564 15.7588C55.3409 17.2433 55.3409 19.6414 53.8564 21.1259C52.3718 22.6104 49.9738 22.6104 48.4893 21.1259" fill="#CADFE5"/>
<path opacity="0.3" d="M69.2724 1.8271C69.7292 1.37033 69.7292 0.799357 69.2724 0.342581C68.8156 -0.114194 68.2446 -0.114194 67.7879 0.342581L50.3162 17.8142C49.8594 18.271 49.8594 18.842 50.3162 19.2988C50.773 19.7555 52.1433 20.5549 52.6001 20.0981L69.2724 1.8271Z" fill="#435956"/>
<path d="M69.2724 1.8271C69.7292 1.37033 69.7292 0.799357 69.2724 0.342581C68.8156 -0.114194 68.2446 -0.114194 67.7879 0.342581L50.3162 17.8142C49.8594 18.271 49.8594 18.842 50.3162 19.2988C50.773 19.7555 51.344 19.7555 51.8007 19.2988L69.2724 1.8271Z" fill="#435956"/>
<path d="M50.3164 19.2987C50.7732 19.7555 51.3441 19.7555 51.8009 19.2987L69.2726 1.82705C69.7294 1.37027 69.7294 0.799305 69.2726 0.342529" fill="#314441"/>
<path d="M47.6901 43.8505C48.3752 44.5356 48.3752 45.5634 47.6901 46.2485L30.9036 63.035C30.2184 63.7202 29.1907 63.7202 28.5055 63.035L6.58028 41.1098C5.89512 40.4246 5.89512 39.3969 6.58028 38.7117L23.3668 21.9252C24.0519 21.2401 25.0797 21.2401 25.7648 21.9252L47.6901 43.8505Z" fill="#EBF0F2"/>
<path d="M47.6898 43.8504L30.3323 26.6072L27.3633 62.0073L28.5052 63.1492C29.1904 63.8344 30.2181 63.8344 30.9033 63.1492L47.6898 46.3627C48.3749 45.5633 48.3749 44.5356 47.6898 43.8504Z" fill="#F2B154" fill-opacity="0.26"/>
</svg>
