<svg width="81" height="81" viewBox="0 0 81 81" fill="none" xmlns="http://www.w3.org/2000/svg">
<mask id="mask0_6_763" style="mask-type:luminance" maskUnits="userSpaceOnUse" x="0" y="0" width="81" height="81">
<path d="M0 0H81V81H0V0Z" fill="white"/>
</mask>
<g mask="url(#mask0_6_763)">
<path d="M42.6315 45.3064C42.6315 45.3064 67.0552 21.7716 69.4532 19.7168C71.8512 17.6619 67.944 14.9207 63.1501 14.9207H41.57H39.172H36.7739H15.196C12.7979 14.9207 5.64011 16.4767 9.23608 20.0727C11.8025 22.637 36.2368 45.3064 36.2368 45.3064V66.8843C36.2368 66.8843 26.4656 71.8722 24.5174 73.0297C22.4199 74.2276 23.8139 76.146 24.6517 76.4764C26.0521 77.0264 29.4562 78.8254 39.1059 78.8254C48.9964 78.8254 52.326 76.8772 53.5239 76.4764C53.9865 76.323 56.3951 74.4898 53.5473 72.8037C48.4785 69.8025 42.6315 66.8843 42.6315 66.8843V45.3064Z" fill="#60B9E1"/>
<path d="M70.3421 17.9955C70.3421 21.4508 56.3867 24.2517 39.172 24.2517C21.9574 24.2517 8.00195 21.4508 8.00195 17.9955C8.00195 14.5381 21.9574 11.7393 39.172 11.7393C56.3867 11.7393 70.3421 14.5381 70.3421 17.9955Z" fill="#3494BF"/>
<path d="M11.6357 18.2963C14.3322 20.9224 29.833 33.7183 36.5731 39.2604C38.4915 40.842 41.1219 40.5884 42.5436 39.5226C43.9654 38.4568 66.347 19.0957 66.347 19.0957L11.6357 18.2963Z" fill="#3494BF"/>
</g>
<mask id="mask1_6_763" style="mask-type:luminance" maskUnits="userSpaceOnUse" x="0" y="0" width="81" height="81">
<path d="M0 0H81V81H0V0Z" fill="white"/>
</mask>
<g mask="url(#mask1_6_763)">
<path d="M38.0856 37.3712C37.5804 37.1047 37.979 35.6659 38.6164 34.5404L54.4924 3.59418C55.1318 2.46658 56.56 2.0701 57.6855 2.70745C58.8131 3.34479 59.2074 4.77295 58.5722 5.90055L40.0957 35.4975C39.7759 36.0603 38.6611 37.6717 38.0856 37.3712Z" fill="#F49C1F"/>
<path d="M48.4823 18.8762C50.8974 20.2383 52.7369 24.4951 51.0402 27.5006C49.3413 30.5083 44.7435 31.1222 42.3284 29.7558C39.9155 28.3938 37.9267 24.397 39.7727 21.1336C41.6165 17.868 46.0672 17.512 48.4823 18.8762Z" fill="#F2B154"/>
<path d="M37.935 25.0701C29.8883 25.0701 22.2445 24.0256 15.0483 21.9345L14.7733 21.8556C13.6435 21.5274 12.9913 20.3465 13.3174 19.2146C13.6435 18.0849 14.8202 17.4326 15.9563 17.7588L16.2377 17.8398C30.1633 21.8876 45.9583 21.7938 63.1708 17.5584C64.3282 17.2813 65.4708 17.9762 65.75 19.1187C66.0314 20.2634 65.3343 21.4187 64.1897 21.6979C55.0495 23.9467 46.278 25.0701 37.935 25.0701Z" fill="#89C3DD"/>
</g>
</svg>
