<svg width="73" height="73" viewBox="0 0 73 73" fill="none" xmlns="http://www.w3.org/2000/svg">
<g clip-path="url(#clip0_6_756)">
<path d="M70.0213 62.4931C63.018 62.4931 63.018 57.7458 56.0147 57.7458C49.0114 57.7458 49.0114 62.4931 42.0081 62.4931C35.0056 62.4931 35.0056 57.7458 28.0033 57.7458C21.0013 57.7458 21.0013 62.4931 13.9993 62.4931C6.99973 62.4931 6.99973 57.7458 0 57.7458V47.7129C6.99959 47.7129 6.99959 52.4602 13.9993 52.4602C21.0013 52.4602 21.0013 47.7129 28.0033 47.7129C35.0058 47.7129 35.0058 52.4602 42.0081 52.4602C49.0114 52.4602 49.0114 47.7129 56.0147 47.7129C63.018 47.7129 63.018 52.4602 70.0213 52.4602" fill="#3D9EC9"/>
<path d="M70.0213 72.5263C63.018 72.5263 63.018 67.779 56.0147 67.779C49.0114 67.779 49.0114 72.5263 42.0081 72.5263C35.0056 72.5263 35.0056 67.779 28.0033 67.779C21.0013 67.779 21.0013 72.5263 13.9993 72.5263C6.99973 72.5263 6.99973 67.779 0 67.779V57.7461C6.99959 57.7461 6.99959 62.4934 13.9993 62.4934C21.0013 62.4934 21.0013 57.7461 28.0033 57.7461C35.0058 57.7461 35.0058 62.4934 42.0081 62.4934C49.0114 62.4934 49.0114 57.7461 56.0147 57.7461C63.018 57.7461 63.018 62.4934 70.0213 62.4934" fill="#47A7DD"/>
<path d="M60.3038 0.473877C56.9142 0.473877 53.7265 1.79387 51.3271 4.19103C48.9289 6.5892 47.6081 9.77724 47.6081 13.1678V23.2895H16.4274V13.1678C16.4274 10.8531 17.3291 8.67668 18.9658 7.04003C20.6042 5.40337 22.7808 4.50199 25.0951 4.50199C29.8746 4.50199 33.7628 8.38939 33.7628 13.1678H37.7909C37.7909 6.16831 32.0956 0.473877 25.0951 0.473877C21.7058 0.473877 18.518 1.79358 16.1184 4.19103C13.7201 6.5892 12.3994 9.77724 12.3994 13.1678V61.5611H16.4275V55.5294H47.6084V61.5611L51.6365 58.5805V13.1678C51.6365 10.8531 52.5382 8.67668 54.1749 7.04003C55.813 5.40337 57.9899 4.50199 60.3042 4.50199C65.0837 4.50199 68.9719 8.38939 68.9719 13.1678H72.9995C72.9995 6.16845 67.3043 0.473877 60.3038 0.473877ZM47.6082 27.3176V37.3955H16.4274V27.3176H47.6082ZM16.4274 51.5015V41.4236H47.6082V51.5015H16.4274Z" fill="#F2B154"/>
<path d="M70.0214 63.8663C66.0981 63.8663 64.0524 62.4796 62.2476 61.2561C60.5558 60.1094 59.0948 59.119 56.0148 59.119C52.9348 59.119 51.4737 60.1094 49.782 61.2561C47.9773 62.4796 45.9315 63.8663 42.0082 63.8663C38.0855 63.8663 36.0399 62.4796 34.2351 61.2561C32.5437 60.1094 31.0829 59.119 28.0032 59.119C24.9238 59.119 23.4631 60.1094 21.7717 61.2561C19.9671 62.4796 17.9218 63.8663 13.999 63.8663C10.0776 63.8663 8.03271 62.4796 6.22881 61.256C4.53812 60.1094 3.07812 59.119 0 59.119V56.3727C3.92147 56.3727 5.96632 57.7594 7.77051 58.983C9.4612 60.1295 10.9212 61.1198 13.9993 61.1198C17.0787 61.1198 18.5394 60.1295 20.2308 58.9827C22.0355 57.7593 24.0807 56.3726 28.0035 56.3726C31.9262 56.3726 33.9718 57.7593 35.7766 58.9827C37.468 60.1295 38.9287 61.1198 42.0084 61.1198C45.0883 61.1198 46.5495 60.1295 48.2412 58.9827C50.0459 57.7593 52.0916 56.3726 56.015 56.3726C59.9383 56.3726 61.984 57.7593 63.7887 58.9827C65.4806 60.1295 66.9416 61.1198 70.0215 61.1198V63.8662L70.0214 63.8663Z" fill="#3494BF"/>
</g>
<defs>
<clipPath id="clip0_6_756">
<rect width="73" height="73" fill="white"/>
</clipPath>
</defs>
</svg>
