<svg width="90" height="83" viewBox="0 0 90 83" fill="none" xmlns="http://www.w3.org/2000/svg">
<path d="M89.7972 72.9613C89.7972 78.1243 69.6965 82.3115 44.8986 82.3115C20.1035 82.3115 0 78.1241 0 72.9613C0 67.7929 20.1035 63.6057 44.8986 63.6057C69.6965 63.6057 89.7972 67.7929 89.7972 72.9613Z" fill="#3494BF"/>
<path d="M63.7415 68.2097H26.0556C26.0556 68.2097 16.234 22.4492 44.8985 22.4492C73.5632 22.4492 63.7415 68.2097 63.7415 68.2097Z" fill="#E2A437"/>
<path d="M63.7415 68.2097H26.0556C26.0556 68.2097 16.234 22.4492 44.8985 22.4492C73.5632 22.4492 63.7415 68.2097 63.7415 68.2097Z" fill="#E2A437"/>
<path d="M44.8986 82.3117C55.5176 82.3117 65.2734 81.5444 72.9603 80.2618V74.2109C72.9603 71.2951 71.1078 68.7083 68.3509 67.7875L68.1701 67.7382C65.1145 66.9051 62.8728 66.1159 61.5245 65.5953C56.7453 63.7592 55.4985 62.4329 55.1805 61.808C55.1696 61.7807 55.1614 61.7587 55.1503 61.7368L55.1065 55.8887L34.6906 56.1244L34.6496 61.7368C34.6387 61.7587 34.6305 61.7807 34.6194 61.808C34.3016 62.4327 33.0574 63.7592 28.2753 65.6008C26.9299 66.1159 24.6855 66.9051 21.6574 67.7272L21.449 67.7875C18.6949 68.7083 16.8398 71.2951 16.8398 74.2109V80.2618C24.5266 81.5444 34.2823 82.3117 44.8986 82.3117Z" fill="#DBADA2"/>
<path d="M60.8012 45.2122C60.8012 55.5434 50.9525 65.4747 44.8988 65.4747C38.8479 65.4747 28.999 55.5434 28.999 45.2122C28.999 34.8767 36.1187 28.0615 44.8988 28.0615C53.6819 28.0615 60.8012 34.8767 60.8012 45.2122Z" fill="#EAC6BB"/>
<path d="M48.4665 32.416L64.8732 43.6189C63.4482 32.775 58.5156 22.4492 44.8984 22.4492L48.4665 32.416Z" fill="#F6BB42"/>
<path d="M47.6228 37.8804C52.9557 33.9889 57.1841 30.2347 59.072 28.4973C55.9644 24.8278 51.4319 22.4492 44.8987 22.4492C28.9275 22.4492 24.9048 36.6555 24.4746 49.2352C30.8708 48.2432 38.6479 44.4339 47.6228 37.8804Z" fill="#FFCE54"/>
<path d="M10.5312 29.1138C11.1724 27.0749 12.5481 25.6444 12.5618 25.6279C12.8907 25.2909 13.0962 24.8305 13.0962 24.3208C13.0962 23.2877 12.2577 22.4492 11.2245 22.4492C10.7038 22.4492 10.2351 22.663 9.8954 23.0055C9.81595 23.085 7.95246 24.9923 7.01255 27.8342C6.10825 30.5774 5.87253 34.6932 9.90084 38.7354C12.0548 40.9004 12.7153 43.183 11.9206 45.7165C11.2766 47.7554 9.90365 49.1859 9.8954 49.1969C9.56112 49.5368 9.35556 49.997 9.35556 50.5123C9.35556 51.5427 10.1915 52.3811 11.2245 52.3811C11.7452 52.3811 12.2165 52.1673 12.5564 51.8276C12.6358 51.7453 14.4993 49.8381 15.4366 46.9935C16.3437 44.2531 16.5766 40.1385 12.551 36.0963C10.3942 33.9313 9.7337 31.6485 10.5312 29.1138Z" fill="#E6E9ED"/>
<path d="M79.8958 36.0963C77.7421 33.9313 77.0815 31.6487 77.8762 29.1138C78.5174 27.0749 79.893 25.6444 79.9067 25.6279C80.2383 25.2909 80.4411 24.8305 80.4411 24.3208C80.4411 23.2877 79.6052 22.4492 78.5723 22.4492C78.0516 22.4492 77.5803 22.663 77.2404 23.0055C77.161 23.085 75.2975 24.9923 74.3576 27.8342C73.4533 30.5774 73.2204 34.6932 77.2459 38.7354C79.4026 40.9004 80.063 43.183 79.2656 45.7165C78.6244 47.7554 77.2487 49.1859 77.2404 49.1969C76.9061 49.5368 76.7006 49.997 76.7006 50.5123C76.7006 51.5427 77.5391 52.3811 78.5723 52.3811C79.0931 52.3811 79.5615 52.1673 79.9013 51.8276C79.9807 51.7453 81.8442 49.8381 82.7843 46.9935C83.6886 44.2531 83.9243 40.1385 79.8958 36.0963Z" fill="#E6E9ED"/>
<path d="M45.7284 4.31051C45.9121 3.60615 46.3451 3.05806 46.3505 3.05263L46.3423 3.06087C46.6082 2.73763 46.7699 2.32371 46.7699 1.87156C46.7699 0.838354 45.9313 0 44.8981 0C44.3199 0 43.802 0.263082 43.4594 0.676822C43.4566 0.676822 43.4566 0.679628 43.4566 0.679628L43.4538 0.682434C43.3552 0.803101 42.566 1.78685 42.1575 3.18171C41.5519 5.25339 42.0533 7.23475 43.5743 8.76115C44.1142 9.3038 44.2622 9.86276 44.0675 10.6218C43.8784 11.3564 43.4372 11.929 43.4317 11.9344L43.4426 11.9208C43.1823 12.2442 43.0289 12.6497 43.0289 13.0964C43.0289 14.1296 43.8648 14.9653 44.8978 14.9653C45.4869 14.9653 46.0104 14.694 46.3556 14.2692C46.4433 14.1596 47.2325 13.1539 47.6409 11.7317C48.2438 9.63528 47.7394 7.64305 46.2241 6.11928C45.6846 5.57926 45.5367 5.03942 45.7284 4.31051Z" fill="#E6E9ED"/>
</svg>
