<svg width="239" height="239" viewBox="0 0 239 239" fill="none" xmlns="http://www.w3.org/2000/svg">
<path opacity="0.6" d="M133.293 0.498986C110.351 -1.62658 87.2904 3.0697 67.0284 13.9939C46.7665 24.9181 30.2129 41.5796 19.4611 61.8714C8.70928 82.1633 4.2421 105.174 6.62447 127.994C9.00685 150.814 18.1318 172.417 32.8453 190.074C47.5589 207.73 67.2002 220.645 89.2855 227.186C111.371 233.727 134.908 233.6 156.921 226.821C178.934 220.042 198.434 206.916 212.955 189.103C227.475 171.289 236.365 149.588 238.499 126.744C241.361 96.1117 231.884 65.602 212.154 41.9266C192.425 18.2511 164.057 3.34922 133.293 0.498986ZM117.32 171.424C106.315 170.404 95.8614 166.158 87.2802 159.222C78.699 152.286 72.376 142.973 69.1107 132.459C65.8454 121.945 65.7845 110.703 68.9356 100.155C72.0867 89.6066 78.3084 80.2255 86.8139 73.1979C95.3194 66.1702 105.727 61.8117 116.72 60.6734C127.713 59.535 138.798 61.668 148.574 66.8025C158.35 71.9371 166.377 79.8427 171.641 89.5196C176.904 99.1966 179.168 110.21 178.145 121.168C176.768 135.861 169.587 149.409 158.181 158.831C146.775 168.253 132.077 172.779 117.32 171.414V171.424Z" fill="#B4B4B4" fill-opacity="0.29"/>
<path d="M126.737 6.50017C103.893 4.36753 80.9323 9.08592 60.7585 20.0586C40.5847 31.0313 24.1037 47.7656 13.3996 68.1452C2.6955 88.5249 -1.75096 111.635 0.622501 134.552C2.99596 157.47 12.0827 179.166 26.7338 196.897C41.3848 214.628 60.9421 227.598 82.9325 234.166C104.923 240.734 128.359 240.606 150.277 233.798C172.195 226.989 191.61 213.807 206.068 195.916C220.526 178.026 229.377 156.232 231.501 133.289C232.912 118.056 231.322 102.692 226.82 88.0756C222.319 73.4592 214.995 59.8765 205.266 48.1029C195.538 36.3294 183.596 26.5956 170.122 19.4574C156.647 12.3191 141.905 7.91626 126.737 6.50017ZM110.843 178.162C99.8851 177.138 89.476 172.873 80.9316 165.907C72.3872 158.942 66.0913 149.588 62.84 139.029C59.5888 128.47 59.5281 117.179 62.6657 106.586C65.8033 95.9918 71.9982 86.5703 80.4672 79.5124C88.9362 72.4545 99.2989 68.0772 110.245 66.9339C121.191 65.7907 132.229 67.9328 141.963 73.0895C151.696 78.2462 159.689 86.1858 164.93 95.9045C170.171 105.623 172.425 116.684 171.407 127.689C170.036 142.446 162.885 156.052 151.528 165.515C140.171 174.978 125.536 179.523 110.843 178.152V178.162Z" fill="#FCAE30"/>
<g opacity="0.5">
<path d="M13.618 67.8525C11.9759 70.942 10.4694 74.115 9.09863 77.3715C13.1284 77.3484 17.1471 76.9465 21.1017 76.1712C33.2091 73.7705 44.325 67.9778 55.253 62.2581C40.484 67.9673 25.8403 67.028 13.618 67.8525Z" fill="#CE800D"/>
<path d="M39.7744 89.291C27.072 94.2071 14.4427 94.2593 3.37905 94.7185C2.62755 97.7558 2.01174 100.845 1.51074 103.987C2.89892 103.799 4.2871 103.58 5.68572 103.308C17.7618 100.866 28.8673 95.042 39.7744 89.291Z" fill="#CE800D"/>
<path d="M7.67866 80.9204C6.46096 84.1142 5.37895 87.3707 4.43262 90.6898C7.05976 90.3435 9.66347 89.8381 12.2294 89.1764C24.1594 86.0452 34.91 79.5844 45.4726 73.2175C32.405 79.1669 19.0972 79.7096 7.67866 80.9204Z" fill="#CE800D"/>
<path d="M23.5956 52.3112C20.8297 55.9529 18.2819 59.7553 15.9658 63.6984C20.0119 62.9252 23.9752 61.7684 27.8019 60.2436C39.2831 55.6303 49.0838 47.8753 58.7593 40.2246C47.0381 47.4369 34.4818 49.7644 23.5956 52.3112Z" fill="#CE800D"/>
<path d="M0.998992 107.41C0.811118 108.819 0.644118 110.239 0.508431 111.679C0.372744 113.12 0.278812 114.581 0.195312 116.032C12.3445 114.289 23.7109 109.153 34.8894 104.07C23.0116 107.901 11.4364 107.629 0.998992 107.41Z" fill="#CE800D"/>
<path d="M0.111833 126.981C8.92103 123.338 17.1249 118.182 25.1617 113.068C16.7178 117.128 8.13822 118.881 0.0178919 120.019C-0.0238578 122.357 0.00745864 124.678 0.111833 126.981Z" fill="#CE800D"/>
<path d="M0.707106 135.185C5.53964 131.5 10.1008 127.471 14.7037 123.453C10.2205 126.514 5.40189 129.053 0.341797 131.02C0.446171 132.408 0.560982 133.807 0.707106 135.185Z" fill="#CE800D"/>
</g>
<path opacity="0.5" d="M116.5 57C103.545 57 90.8816 60.8415 80.1102 68.0388C69.3388 75.236 60.9435 85.4657 55.9859 97.4342C51.0284 109.403 49.7313 122.573 52.2586 135.278C54.7859 147.984 61.0242 159.655 70.1845 168.815C79.3449 177.976 91.0159 184.214 103.722 186.741C116.427 189.269 129.597 187.972 141.566 183.014C153.534 178.057 163.764 169.661 170.961 158.89C178.159 148.118 182 135.455 182 122.5C182 105.128 175.099 88.4681 162.815 76.1845C150.532 63.9009 133.872 57 116.5 57ZM171.884 127.657C170.86 138.609 166.612 149.012 159.677 157.55C152.741 166.088 143.43 172.378 132.921 175.625C122.411 178.872 111.174 178.93 100.632 175.792C90.0889 172.653 80.7134 166.459 73.6905 157.993C66.6676 149.527 62.3126 139.168 61.1761 128.227C60.0396 117.286 62.1725 106.254 67.3053 96.5251C72.4382 86.7962 80.3404 78.8075 90.0129 73.5692C99.6854 68.3308 110.694 66.0779 121.647 67.0954C128.923 67.7712 135.994 69.8741 142.457 73.2839C148.92 76.6936 154.648 81.3434 159.313 86.9675C163.978 92.5916 167.49 99.0799 169.647 106.062C171.804 113.043 172.564 120.382 171.884 127.657Z" fill="#CE800D"/>
<path d="M177 122.479C176.996 110.514 173.444 98.8183 166.793 88.8717C160.142 78.9251 150.691 71.1739 139.635 66.5983C128.58 62.0227 116.415 60.8282 104.68 63.1658C92.9456 65.5035 82.1675 71.2682 73.709 79.7312C65.2504 88.1941 59.4912 98.9752 57.1597 110.711C54.8282 122.447 56.029 134.611 60.6103 145.664C65.1916 156.718 72.9477 166.165 82.8978 172.81C92.8479 179.456 104.545 183.002 116.51 183C124.457 183 132.325 181.434 139.666 178.393C147.007 175.351 153.677 170.892 159.294 165.272C164.912 159.652 169.366 152.98 172.405 145.637C175.443 138.294 177.004 130.425 177 122.479ZM60.8149 117.308C61.8394 106.303 66.1041 95.8496 73.0697 87.2684C80.0354 78.6873 89.3891 72.3643 99.9482 69.0991C110.507 65.8338 121.797 65.7728 132.391 68.9239C142.985 72.075 152.406 78.2967 159.464 86.8021C166.522 95.3075 170.899 105.715 172.042 116.708C173.186 127.701 171.044 138.786 165.887 148.562C160.73 158.338 152.791 166.365 143.072 171.628C133.353 176.892 122.292 179.155 111.287 178.133C96.5367 176.748 82.9391 169.564 73.4828 158.159C64.0265 146.753 59.4852 132.06 60.8568 117.308H60.8149Z" fill="#CE800D"/>
<path d="M105.005 14.5503C104.938 17.8675 105.522 21.165 106.723 24.2496C107.924 27.3342 109.718 30.1438 111.999 32.514C114.28 34.8841 117.003 36.767 120.008 38.0524C123.013 39.3379 126.24 40 129.5 40C132.76 40 135.987 39.3379 138.992 38.0524C141.997 36.767 144.72 34.8841 147.001 32.514C149.282 30.1438 151.076 27.3342 152.277 24.2496C153.478 21.165 154.062 17.8675 153.995 14.5503C153.995 13.8456 153.995 13.1409 153.902 12.4467C145.162 9.36679 136.09 7.37153 126.881 6.50417C120.049 5.86134 113.175 5.83317 106.338 6.42001C105.455 9.03635 105.004 11.7838 105.005 14.5503Z" fill="#F9EF32"/>
<path d="M200 135.494C200.003 141.995 202.614 148.228 207.261 152.823C211.907 157.418 218.208 160 224.777 160H225.77C231.083 144.552 233.031 128.166 231.486 111.919C227.803 110.892 223.929 110.723 220.169 111.426C216.409 112.129 212.864 113.684 209.814 115.971C206.763 118.257 204.289 121.211 202.587 124.602C200.884 127.993 199.999 131.728 200 135.515V135.494Z" fill="#F9EF32"/>
<path d="M33 110.017C32.9973 103.383 30.4088 97.0213 25.8034 92.3304C21.198 87.6394 14.9525 85.0028 8.43951 85C7.61613 84.9993 6.79326 85.0416 5.97413 85.1266C0.852684 100.741 -1.00678 117.273 0.515094 133.662C4.21177 134.946 8.15566 135.313 12.0195 134.733C15.8833 134.153 19.5557 132.643 22.7319 130.328C25.908 128.013 28.4964 124.96 30.2822 121.422C32.068 117.884 32.9997 113.963 33 109.985V110.017Z" fill="#F9EF32"/>
<path d="M169.532 106C173.887 105.427 178.01 103.708 181.476 101.02C184.941 98.3315 187.625 94.771 189.249 90.7053C190.873 86.6396 191.38 82.216 190.717 77.8903C190.054 73.5646 188.244 69.4933 185.476 66.0962C182.707 62.6991 179.079 60.0989 174.966 58.5638C170.852 57.0287 166.403 56.6141 162.075 57.3629C157.747 58.1116 153.698 59.9965 150.345 62.8234C146.992 65.6502 144.457 69.3167 143 73.4449C155.772 80.4293 165.294 92.1134 169.532 106Z" fill="#F9EF32"/>
<path opacity="0.5" d="M148.134 65C145.867 67.4521 144.121 70.3333 143 73.4712C143.808 73.9094 144.596 74.358 145.373 74.8379C146.15 75.3074 146.906 75.7873 147.651 76.2985C148.386 76.7992 149.121 77.3417 149.824 77.8529C150.538 78.385 151.231 78.8962 151.924 79.5013C152.606 80.0646 153.268 80.6384 153.919 81.2331C154.57 81.8277 155.21 82.4432 155.829 83.0692C156.449 83.6951 157.058 84.342 157.656 84.9992C158.244 85.6669 158.832 86.345 159.388 87.0336C163.985 92.639 167.437 99.0814 169.551 106C172.892 105.558 176.107 104.443 179 102.724C173.936 86.6942 162.893 73.1969 148.134 65Z" fill="#D6C70D"/>
<path d="M144.959 69C144.178 70.3386 143.522 71.7469 143 73.2069C143.807 73.6487 144.592 74.1009 145.368 74.5847C146.143 75.058 146.897 75.5418 147.641 76.0571C148.374 76.562 149.108 77.1089 149.81 77.6242C150.522 78.1606 151.214 78.676 151.905 79.286C152.586 79.8539 153.246 80.4324 153.896 81.0318C154.545 81.6313 155.184 82.2518 155.802 82.8829C156.42 83.5139 157.028 84.166 157.625 84.8286C158.212 85.5017 158.799 86.1853 159.354 86.8795C163.94 92.5304 167.385 99.0252 169.495 106C171.025 105.785 172.533 105.433 174 104.948C169.4 89.6009 158.968 76.6875 144.959 69Z" fill="#D6C70D"/>
<path d="M63.7006 141C59.3983 141.934 55.4206 143.971 52.1679 146.907C48.9152 149.843 46.5021 153.573 45.1716 157.724C43.841 161.874 43.6398 166.298 44.5883 170.549C45.5368 174.801 47.6015 178.731 50.5747 181.943C53.5478 185.156 57.3245 187.537 61.5248 188.849C65.725 190.16 70.2006 190.355 74.5012 189.414C78.8019 188.472 82.7758 186.428 86.0233 183.487C89.2707 180.545 91.6769 176.81 93 172.657C86.2493 169.545 80.1862 165.147 75.1585 159.715C70.1307 154.282 66.237 147.923 63.7006 141Z" fill="#F9EF32"/>
<path opacity="0.5" d="M88.1638 182C90.3431 179.421 91.988 176.421 93 173.179C86.3336 170.016 80.3463 165.545 75.3813 160.023C70.4163 154.501 66.5712 148.037 64.0665 141C60.8022 141.733 57.718 143.133 55 145.113C60.9588 161.304 72.8427 174.522 88.1638 182Z" fill="#D6C70D"/>
<path d="M91.1561 177C91.8978 175.657 92.5149 174.251 93 172.799C86.1976 169.673 80.0882 165.255 75.022 159.799C69.9558 154.342 66.0323 147.954 63.4765 141C61.9411 141.333 60.442 141.811 59 142.428C61.7757 149.998 66.0467 156.951 71.5661 162.885C77.0854 168.819 83.7437 173.617 91.1561 177Z" fill="#D6C70D"/>
<path d="M69 91H69.8014C75.6848 82.4221 83.8936 75.6229 93.5044 71.3669C93.831 69.7643 93.997 68.1343 94 66.5C94 61.6544 92.5338 56.9175 89.7867 52.8885C87.0397 48.8595 83.1352 45.7193 78.5671 43.865C73.9989 42.0106 68.9723 41.5254 64.1228 42.4708C59.2732 43.4161 54.8187 45.7495 51.3223 49.1759C47.826 52.6023 45.445 56.9678 44.4804 61.7203C43.5157 66.4728 44.0108 71.399 45.903 75.8758C47.7952 80.3525 50.9995 84.1789 55.1108 86.871C59.222 89.5631 64.0555 91 69 91Z" fill="#F9EF32"/>
<path opacity="0.5" d="M59 89.089C62.1049 90.3568 65.4425 91.0067 68.8132 91H69.6212C70.0677 90.3527 70.5355 89.726 71.014 89.0993L71.4818 88.5034C71.8326 88.0513 72.1835 87.6095 72.545 87.178L73.0447 86.5822C73.5337 86.0171 74.0228 85.452 74.5331 84.9075L75.1072 84.3116C75.4474 83.952 75.7983 83.5924 76.1704 83.2842L76.9465 82.5239L77.8715 81.6712C78.3499 81.2294 78.8496 80.7979 79.3387 80.3767L80.2212 79.637L81.3587 78.7431L81.9754 78.2705C82.39 77.9623 82.8047 77.6541 83.2299 77.3561L83.4532 77.1404C84.4526 76.4418 85.4733 75.7637 86.5152 75.0856L88.1312 74.1404L88.3013 74.0377C89.9812 73.0993 91.7142 72.2397 93.5003 71.4589C93.8296 69.8655 93.997 68.2448 94 66.6199C93.9981 64.7269 93.7662 62.8407 93.3089 61C78.8648 66.2628 66.7451 76.1853 59 89.089Z" fill="#D6C70D"/>
<path d="M65 90.6042C66.4462 90.8683 67.9133 91.0007 69.3832 91H70.1726C70.6089 90.3437 71.0659 89.7084 71.5333 89.0729L71.9903 88.4688C72.3331 88.0104 72.6759 87.5625 73.029 87.125L73.5172 86.5208C73.995 85.9479 74.4728 85.375 74.9714 84.8229L75.5322 84.2188C75.8646 83.8542 76.2074 83.4896 76.5709 83.1771L77.3292 82.4062L78.2328 81.5417C78.7002 81.0938 79.1884 80.6563 79.6662 80.2292L80.5283 79.4792L81.6397 78.5729L82.2421 78.0938C82.6472 77.7813 83.0523 77.4687 83.4678 77.1667L83.6963 76.9479C84.6726 76.2396 85.6698 75.5521 86.6877 74.8646L88.2665 73.9062L88.4327 73.8021C90.0738 72.8507 91.7668 71.9792 93.5118 71.1875C93.8336 69.572 93.9971 67.9287 94 66.2813C94 66.1875 94 66.0937 94 66C81.9406 70.8505 71.7681 79.4811 65 90.6042Z" fill="#D6C70D"/>
<path d="M92.5143 38.606C107.221 34.1658 117.545 25.2741 115.574 18.7458C113.603 12.2175 100.083 10.5248 85.3766 14.965C70.6701 19.4052 60.3459 28.2968 62.3169 34.8251C64.2879 41.3534 77.8077 43.0461 92.5143 38.606Z" fill="#FFC269"/>
<path d="M115.76 19.0055C114.716 15.6967 110.735 13.6327 105.084 13C105.031 13.6742 105 14.3484 105 15.0744C104.993 20.4704 106.781 25.7175 110.088 30C114.517 26.2971 116.774 22.3453 115.76 19.0055Z" fill="#FFF78D"/>
<path d="M79.8387 49.5517C80.9356 52.539 76.3224 56.9588 69.5256 59.4075C62.7289 61.8563 56.3217 61.4397 55.1735 58.4423C54.0254 55.4449 58.7 51.0352 65.4968 48.5763C72.2936 46.1174 78.7418 46.6051 79.8387 49.5517Z" fill="#FFF78D"/>
<g opacity="0.5">
<path d="M44.3662 65.3791C44.3662 65.8175 44.3662 66.2558 44.3662 66.6942C44.3662 67.07 44.3662 67.4457 44.3662 67.811C48.0298 66.0367 51.6724 64.1475 55.2525 62.2583C51.7186 63.6048 48.0768 64.6488 44.3662 65.3791Z" fill="#D6C70D"/>
<path d="M5.67523 103.309C13.5227 101.554 21.1182 98.8187 28.2827 95.1676C27.6755 94.3826 27.0275 93.6301 26.3414 92.9131C18.3045 94.2908 10.5182 94.4265 3.37898 94.7188C3.02411 96.1591 2.70055 97.6204 2.4083 99.0816C2.4083 99.2486 2.33524 99.4156 2.30393 99.5826C2.03256 100.992 1.77162 102.401 1.54199 103.831C1.54199 103.831 1.54199 103.904 1.54199 103.945C2.9093 103.799 4.29748 103.58 5.67523 103.309Z" fill="#D6C70D"/>
<path d="M12.2297 89.1764C14.2546 88.6441 16.2481 88.0074 18.2103 87.2977C15.1502 85.9987 11.8592 85.3313 8.53484 85.3355C7.70868 85.335 6.88304 85.3768 6.06116 85.4607C6.02868 85.539 6.0008 85.6192 5.97766 85.7008C5.97766 85.7738 5.97766 85.8573 5.89416 85.9408C5.42448 87.3708 4.9861 88.8111 4.5686 90.2724L4.44336 90.6898C7.06706 90.3436 9.6673 89.8382 12.2297 89.1764Z" fill="#D6C70D"/>
<path d="M32.7601 105.052L32.6974 104.739C21.5711 107.87 10.7788 107.609 1.0198 107.411C0.842366 108.82 0.675368 110.239 0.539681 111.669C0.403994 113.099 0.310062 114.571 0.226562 116.021C11.5929 114.393 22.2809 109.801 32.7601 105.052Z" fill="#D6C70D"/>
<path d="M0.111833 126.981C8.92103 123.338 17.1249 118.182 25.1617 113.068C16.7178 117.128 8.13822 118.881 0.0178919 120.019C-0.0238578 122.357 0.00745864 124.678 0.111833 126.981Z" fill="#D6C70D"/>
</g>
</svg>
