<svg width="225" height="222" viewBox="0 0 225 222" fill="none" xmlns="http://www.w3.org/2000/svg">
<path opacity="0.6" d="M221.531 132.459C221.804 131.408 222.048 130.373 222.292 129.323V129.125C222.748 127.055 223.144 124.97 223.463 122.9L223.6 122.094C223.753 121.059 223.905 120.024 224.027 119.05C224.027 118.882 224.027 118.715 224.027 118.548C224.255 116.554 224.422 114.575 224.544 112.581C224.544 112.307 224.544 112.018 224.544 111.744C224.544 110.725 224.651 109.705 224.666 108.7C224.666 108.442 224.666 108.168 224.666 107.894C224.666 106.022 224.666 104.134 224.59 102.262C224.59 101.958 224.59 101.653 224.59 101.349C224.59 100.375 224.483 99.3857 224.407 98.4117C224.407 98.0464 224.407 97.6963 224.316 97.3311C224.179 95.5808 223.981 93.8305 223.753 92.0802C223.753 91.7301 223.661 91.3801 223.6 91.03C223.463 90.1016 223.326 89.1732 223.159 88.2448L222.931 86.9511C222.626 85.3226 222.292 83.6941 221.911 82.0808L221.637 80.8936L220.952 78.2606L220.541 76.7386C220.115 75.2166 219.643 73.7707 219.156 72.2944L218.7 70.9398C218.416 70.1179 218.111 69.2961 217.786 68.4742C217.604 67.9567 217.391 67.4545 217.193 66.9522C216.66 65.6129 216.097 64.2735 215.503 62.9494C215.275 62.4319 215.062 61.9144 214.819 61.4274C214.468 60.6664 214.088 59.9054 213.723 59.1444C213.357 58.3834 213.19 58.0942 212.916 57.6224C212.338 56.4809 211.729 55.3394 211.09 54.2132C210.74 53.5891 210.405 52.9651 210.04 52.3411C209.674 51.7171 209.172 50.9257 208.746 50.2256L207.757 48.7036C207.315 48.0034 206.859 47.3186 206.402 46.6337C205.748 45.6596 205.063 44.6855 204.362 43.7267C203.875 43.057 203.388 42.4178 202.841 41.7633L201.669 40.2413C201.166 39.6021 200.649 38.9477 200.147 38.3236C199.386 37.4105 198.625 36.5277 197.848 35.6449C180.759 16.4515 157.313 4.07467 131.825 0.791417C130.668 0.654438 129.496 0.517459 128.324 0.41092L125.874 0.213077L123.971 0.106527C123.149 0.106527 122.327 0.0152199 121.521 0C120.334 0 119.146 0 117.959 0H115.494H113.652L111.156 0.136973C110.441 0.136973 109.741 0.258725 109.025 0.319604C107.747 0.441363 106.453 0.563129 105.175 0.730547L103.424 0.958836L100.913 1.33933L99.2541 1.64375C97.8234 1.91771 96.408 2.20686 94.9925 2.52648L93.3792 2.89177L90.8375 3.531L89.6351 3.82018C88.1131 4.24634 86.5911 4.70292 85.1909 5.18996L83.7602 5.66179L81.2033 6.57497L80.0618 7.03157C78.5398 7.62515 77.0178 8.24917 75.4959 8.91885L74.3087 9.46676C73.4564 9.84726 72.6041 10.2582 71.7518 10.6691L70.8081 11.1409C69.2861 11.9324 67.6728 12.7695 66.1356 13.637L65.2072 14.1697C64.3549 14.6567 63.5178 15.159 62.6807 15.6917L61.8893 16.1787C60.3673 17.1832 58.7388 18.2182 57.2168 19.2227L56.5471 19.6945C55.7252 20.2881 54.9034 20.8816 54.0967 21.5057L53.427 22.0232C51.9051 23.2407 50.3831 24.504 48.8611 25.8129L48.4806 26.1478L46.1367 28.2633L45.5584 28.8112C44.0364 30.2571 42.5144 31.7486 41.0989 33.3011L40.9315 33.4685C40.201 34.2498 39.4856 35.0412 38.7855 35.8428L38.2224 36.5125C23.8234 53.0906 14.9177 73.7248 12.7317 95.574C10.5457 117.423 15.1868 139.413 26.0161 158.515L26.8227 159.93C27.2945 160.722 27.7663 161.452 28.2534 162.289L29.2579 163.888C29.7449 164.633 30.232 165.41 30.7799 166.11C31.3278 166.81 31.5561 167.221 31.9366 167.769L33.4586 169.869C33.9608 170.554 34.4935 171.208 34.9806 171.893C35.772 172.882 36.5025 173.872 37.4005 174.846C37.9484 175.5 38.4963 176.155 39.0747 176.794C39.6531 177.433 40.0792 177.905 40.5967 178.453C41.1142 179.001 41.7686 179.701 42.3622 180.31L43.8842 181.832L45.9236 183.78L47.3391 185.089C48.4806 186.124 49.6373 187.128 50.8244 188.133L51.5854 188.742C52.6052 189.563 53.6553 190.385 54.7055 191.177L56.1057 192.181L58.7692 194.069L60.2912 195.058C61.2348 195.682 62.2089 196.291 63.183 196.884L64.5375 197.706C65.9682 198.543 67.4141 199.365 68.9056 200.157C70.3972 200.948 71.9496 201.678 73.3955 202.379L74.9175 203.033C75.9525 203.505 77.0026 203.961 77.9615 204.388L79.6509 205.073C80.6554 205.468 81.6751 205.849 82.6948 206.214L84.3234 206.792C85.5714 207.219 86.8194 207.614 88.0827 207.995L89.0263 208.299C90.5483 208.725 91.979 209.106 93.4705 209.471L95.3578 209.897L98.1126 210.476L100.289 210.81L102.846 211.221L105.053 211.541L107.61 211.815C108.873 211.952 110.121 212.058 111.384 212.15C112.252 212.15 113.119 212.272 113.972 212.302H116.559H118.583C119.466 212.302 120.364 212.302 121.247 212.302L123.119 212.332L125.874 212.18L127.517 212.043C149.378 210.203 170.133 201.644 186.935 187.539C203.738 173.435 215.764 154.476 221.363 133.265C221.394 133.006 221.454 132.732 221.531 132.459Z" fill="#DEDEDE"/>
<path d="M109.39 221.586C168.113 221.586 215.717 173.982 215.717 115.26C215.717 56.5376 168.113 8.93384 109.39 8.93384C50.6682 8.93384 3.06445 56.5376 3.06445 115.26C3.06445 173.982 50.6682 221.586 109.39 221.586Z" fill="#F4EFE6"/>
<path d="M93.8057 10.0906C115.387 19.6944 147.471 20.0596 176.389 38.2474C166.584 30.0699 156.352 22.4188 145.736 15.3263C129.134 9.27652 111.281 7.47666 93.8057 10.0906Z" fill="#E5DCCF"/>
<path d="M43.6094 31.7332C45.4358 45.0811 48.8602 58.2767 52.2847 71.3049C49.8952 54.4261 51.9042 38.643 54.522 24.1233C50.7295 26.4301 47.0848 28.9717 43.6094 31.7332Z" fill="#E5DCCF"/>
<path d="M61.4336 178.471C74.6232 171.496 76.9092 149.945 66.5395 130.335C56.1698 110.726 37.0713 100.483 23.8818 107.458C10.6922 114.432 8.40628 135.983 18.7759 155.593C29.1456 175.203 48.2441 185.445 61.4336 178.471Z" fill="#FFFDFA"/>
<path d="M187.21 51.2151C191.03 58.4445 190.254 66.4349 185.323 68.9614C180.392 71.4879 173.421 67.7591 169.601 60.5144C165.78 53.2698 166.557 45.2945 171.473 42.768C176.389 40.2415 183.39 43.9704 187.21 51.2151Z" fill="white"/>
<path d="M188.838 44.5637C153.498 51.9301 128.72 78.641 128.72 78.641C128.72 78.641 182.355 88.8688 210.298 148.744C216.162 131.021 217.266 112.068 213.5 93.784C209.733 75.5 201.229 58.5265 188.838 44.5637Z" fill="#F79831"/>
<path d="M183.253 45.9182C177.775 47.4295 172.426 49.3736 167.257 51.7322C167.36 54.8054 168.178 57.8122 169.646 60.5141C173.467 67.7587 180.513 71.5332 185.368 68.9611C190.224 66.3889 191.076 58.4442 187.256 51.2147C186.212 49.2476 184.86 47.4597 183.253 45.9182Z" fill="#FFAD5C"/>
<path d="M128.72 78.6411C128.72 78.6411 136.801 43.1179 122.951 9.78636C104.427 7.43493 85.6096 9.99358 68.3855 17.2059C51.1614 24.4182 36.1355 36.0308 24.8135 50.88C90.0154 40.1348 128.72 78.6411 128.72 78.6411Z" fill="#6CC3AE"/>
<path d="M131.017 57.0895C128.34 51.7662 125.288 46.6395 121.885 41.7479C113.055 29.2692 101.712 18.776 88.5842 10.9429H88.432C87.4579 11.1407 86.4838 11.369 85.5098 11.5973C87.7775 33.4074 110.577 48.7186 129.891 71.7919C130.53 66.9149 130.906 62.007 131.017 57.0895Z" fill="#5DAF9A"/>
<path d="M78.5099 13.5303L76.7444 14.0934L74.9941 14.6718L73.1372 15.3414L71.3717 15.9959L69.6367 16.6808L67.7494 17.457L66.1209 18.1723C65.4512 18.4615 64.7815 18.7811 64.1119 19.1007L63.0008 19.6182C62.4962 25.2921 62.4402 30.997 62.8334 36.6797C63.167 41.1775 63.7462 45.6538 64.5685 50.0884C68.6169 50.6211 72.498 51.3364 76.1964 52.1735C77.1705 38.0799 78.9817 25.1278 78.5099 13.5303Z" fill="#5DAF9A"/>
<path d="M59.7582 209.288C79.8192 219.909 102.762 223.804 125.204 220.399C152.858 146.476 128.719 78.6409 128.719 78.6409C128.719 78.6409 59.1038 96.9047 13.6572 161.513C23.5025 181.97 39.6649 198.72 59.7582 209.288Z" fill="#D22B38"/>
<path d="M18.4824 154.953C18.6042 155.166 18.6955 155.38 18.802 155.593C29.1668 175.211 48.2677 185.454 61.4177 178.422C74.5676 171.391 76.9267 149.931 66.562 130.343C63.9279 125.306 60.5577 120.689 56.5625 116.645C42.2964 127.748 29.5003 140.621 18.4824 154.953Z" fill="#E54154"/>
<path d="M146.057 79.7903C146.706 70.213 139.469 61.9225 129.892 61.2729C120.314 60.6234 112.024 67.8607 111.374 77.438C110.725 87.0153 117.962 95.3059 127.54 95.9554C137.117 96.605 145.407 89.3676 146.057 79.7903Z" fill="#59519E"/>
<path d="M112.708 141.819C118.643 153.036 117.274 165.364 109.785 169.367C102.297 173.37 91.3236 167.495 85.4335 156.278C79.5434 145.061 80.8676 132.717 88.3557 128.73C95.8439 124.742 106.772 130.602 112.708 141.819Z" fill="#E54154"/>
<path d="M142.402 89.3404C142.832 88.7812 143.229 88.1967 143.589 87.5901C140.619 78.8508 137.201 70.2706 133.346 61.8837C129.493 60.823 125.391 61.124 121.733 62.736C129.55 70.8436 136.478 79.7623 142.402 89.3404Z" fill="#4A468C"/>
</svg>
