<svg width="173" height="162" viewBox="0 0 173 162" fill="none" xmlns="http://www.w3.org/2000/svg">
<path d="M1.74619 161.84C12.5123 143.555 25.1417 126.433 39.4327 110.749C47.7743 114.619 56.8715 116.59 66.0672 116.517C77.8896 116.411 89.359 112.911 100.691 109.49C76.1607 113.961 55.0781 101.715 40.617 109.433C44.7519 104.938 49.0143 100.566 53.4043 96.3157C61.0077 101.394 69.6372 104.732 78.6782 106.094C90.3673 107.837 102.264 106.204 113.969 104.574C89.0571 105.158 70.1724 89.7808 54.6932 95.0933C58.6831 91.2727 62.7782 87.5545 66.9783 83.9389C73.8441 90.0825 81.9905 94.622 90.8273 97.2285C102.137 100.601 114.163 100.596 125.997 100.567C100.875 97.6715 84.1296 79.365 67.8342 83.1879C70.542 80.8678 73.2904 78.5973 76.0795 76.3764C83.3156 82.1488 91.7524 86.2277 100.771 88.3138C112.286 90.9734 124.273 90.2767 136.067 89.5698C110.799 88.163 93.0122 70.8448 76.9736 75.6728C80.2153 73.1139 83.512 70.6085 86.8637 68.1565C94.3958 73.4602 103.016 77.017 112.097 78.568C123.728 80.5409 135.668 79.1598 147.416 77.7827C122.504 77.8851 103.939 62.1492 88.375 67.1054C92.3228 64.2647 96.3369 61.5098 100.417 58.8408C107.613 64.5889 115.996 68.6667 124.96 70.7797C136.471 73.475 148.466 72.8132 160.256 72.142C135.395 70.6831 117.812 53.8277 101.991 57.8851C104.92 56.0079 107.873 54.1646 110.881 52.4103C118.993 56.6709 127.947 59.0866 137.102 59.4848C148.904 59.9887 160.602 57.1484 172.036 54.2597C148.766 57.2556 129.286 45.6598 114.705 50.0843C116.24 49.2018 117.779 48.3403 119.321 47.4998C128.285 46.6982 136.968 43.9631 144.772 39.4828C155.011 33.5754 163.31 24.8979 171.442 16.3648C151.862 32.6605 126.849 32.0038 118.563 46.7577C115.635 48.3823 112.734 50.0478 109.858 51.7544C120.877 41.481 121.237 19.0423 135.752 0.916036C127.346 9.23138 118.835 17.6945 113.119 28.0421C108.658 36.153 106.067 45.1584 105.535 54.3997C101.979 56.5896 98.4525 58.8723 94.9546 61.2478C105.31 50.0355 103.187 27.4083 115.979 7.66808C108.455 16.7821 100.828 26.058 96.1889 36.9097C92.577 45.3924 90.8992 54.5728 91.2773 63.7847C88.3095 65.8555 85.3801 67.9784 82.4891 70.1533C92.694 57.8164 86.1544 34.7518 96.1329 12.3065C90.1158 22.4804 84.0314 32.8353 81.1418 44.2936C78.892 53.2529 78.6659 62.6007 80.4801 71.6583C77.788 73.7201 75.1199 75.8301 72.5166 77.9576C81.2799 64.3376 71.5331 42.2739 78.4348 18.5626C73.8332 29.4475 69.1933 40.5259 67.8639 52.2618C66.8395 61.3889 67.8557 70.6295 70.839 79.3159C67.3978 82.1791 64.01 85.1078 60.6756 88.1017C69.0575 74.7447 60.6469 52.7592 68.2997 29.7833C63.2913 40.4935 58.2296 51.384 56.4651 63.0673C55.0864 72.1456 55.7415 81.4169 58.3829 90.2112C54.156 94.0976 50.0394 98.0955 46.0332 102.205C54.0978 88.9941 46.6737 67.1638 54.8069 44.7762C49.5137 55.3401 44.1607 66.0915 42.0748 77.7297C40.4611 86.8036 40.8867 96.1229 43.3207 105.012C27.0304 122.121 12.752 141.038 0.764062 161.394L1.74619 161.84Z" fill="#92C4DA"/>
</svg>
