<svg width="255" height="255" viewBox="0 0 255 255" fill="none" xmlns="http://www.w3.org/2000/svg">
<mask id="mask0_10_2106" style="mask-type:luminance" maskUnits="userSpaceOnUse" x="0" y="0" width="255" height="255">
<path d="M58.3541 20.3014C37.1854 33.9451 20.5377 53.5594 10.5161 76.6643C0.494498 99.7691 -2.45091 125.327 2.05226 150.105C6.55543 174.884 18.305 197.771 35.8152 215.873C53.3254 233.974 75.8098 246.477 100.425 251.8C125.041 257.123 150.682 255.027 174.107 245.778C197.532 236.529 217.688 220.541 232.027 199.837C246.365 179.133 254.243 154.642 254.663 129.46C255.083 104.279 248.027 79.5391 234.387 58.3681C216.091 29.977 187.267 10.0165 154.254 2.87766C121.242 -4.26122 86.7456 2.00626 58.3541 20.3014ZM168.867 191.777C156.124 199.988 141.232 204.236 126.074 203.984C110.916 203.732 96.1733 198.991 83.7099 190.361C71.2465 181.73 61.6221 169.598 56.0536 155.498C50.4852 141.397 49.2227 125.963 52.4259 111.145C55.6292 96.3275 63.1542 82.7924 74.0495 72.2513C84.9448 61.7103 98.7211 54.6366 113.636 51.9247C128.552 49.2128 143.936 50.9846 157.845 57.0159C171.753 63.0472 183.561 73.0672 191.775 85.809C202.766 102.906 206.527 123.664 202.232 143.53C197.937 163.395 185.938 180.747 168.867 191.777Z" fill="white"/>
</mask>
<g mask="url(#mask0_10_2106)">
<path d="M259.442 160.849C277.976 87.8707 233.841 13.685 160.862 -4.84919C87.8835 -23.3834 13.6978 20.7525 -4.8364 93.731C-23.3706 166.71 20.7653 240.895 93.7438 259.429C166.722 277.964 240.908 233.828 259.442 160.849Z" fill="url(#paint0_linear_10_2106)"/>
<path d="M127.343 256.487C198.666 256.487 256.484 198.668 256.484 127.345C256.484 56.0221 198.666 -1.79651 127.343 -1.79651C56.0198 -1.79651 -1.79883 56.0221 -1.79883 127.345C-1.79883 198.668 56.0198 256.487 127.343 256.487Z" fill="url(#paint1_linear_10_2106)"/>
<path d="M243.748 152.872C257.835 88.5886 217.142 25.0576 152.859 10.9711C88.5765 -3.11538 25.0455 37.5769 10.959 101.86C-3.12752 166.143 37.5648 229.674 101.848 243.76C166.131 257.847 229.662 217.155 243.748 152.872Z" fill="url(#paint2_linear_10_2106)"/>
<path style="mix-blend-mode:screen" opacity="0.51" d="M47.7286 1.98759C56.9521 5.26358 51.2222 44.9622 34.951 90.6447C18.6799 136.327 -2.00356 170.719 -11.2271 167.455C-20.4506 164.191 -14.7328 124.48 1.55047 78.798C17.8337 33.1155 38.5051 -1.33675 47.7286 1.98759Z" fill="url(#paint3_radial_10_2106)"/>
<path style="mix-blend-mode:screen" opacity="0.68" d="M262.734 71.1094C258.286 79.8252 219.675 68.9697 176.507 46.8478C133.339 24.7258 101.957 -0.297398 106.394 -8.97695C110.83 -17.6565 149.453 -6.82518 192.621 15.2847C235.789 37.3946 267.183 62.4299 262.734 71.1094Z" fill="url(#paint4_radial_10_2106)"/>
<path style="mix-blend-mode:screen" opacity="0.51" d="M240.044 17.0979C238.533 26.7687 198.459 28.4248 150.589 20.8211C102.718 13.2174 65.0869 -0.781054 66.6101 -10.4519C68.1332 -20.1227 108.195 -21.7909 156.065 -14.1872C203.936 -6.58353 241.567 7.42706 240.044 17.0979Z" fill="url(#paint5_radial_10_2106)"/>
<path style="mix-blend-mode:screen" opacity="0.51" d="M192.125 263.643C190.602 273.314 150.54 274.982 102.67 267.367C54.7995 259.751 17.168 245.764 18.6911 236.094C20.2143 226.423 60.2756 224.755 108.146 232.358C156.017 239.962 193.648 253.972 192.125 263.643Z" fill="url(#paint6_radial_10_2106)"/>
<path style="mix-blend-mode:screen" opacity="0.51" d="M265.467 75.9448C274.92 78.4713 272.381 118.496 259.797 165.339C247.213 212.182 229.334 248.097 219.905 245.571C210.476 243.044 212.991 203.019 225.587 156.188C238.183 109.357 256.014 73.4183 265.467 75.9448Z" fill="url(#paint7_radial_10_2106)"/>
<path style="mix-blend-mode:multiply" d="M41.6353 153.372C49.8675 181.248 66.7915 200.843 79.4119 197.132C92.0323 193.421 95.5984 167.817 87.3661 139.941C79.1338 112.065 62.2099 92.4577 49.5774 96.1689C36.9449 99.8801 33.403 125.484 41.6353 153.372Z" fill="url(#paint8_radial_10_2106)"/>
<path style="mix-blend-mode:multiply" d="M104.375 49.6041C76.571 58.3441 56.9756 74.5185 60.4933 85.7729C64.0111 97.0273 89.3486 99.0702 117.08 90.2939C144.811 81.5177 164.43 65.3675 160.913 54.1372C157.395 42.907 132.057 40.8641 104.375 49.6041Z" fill="url(#paint9_radial_10_2106)"/>
<path style="mix-blend-mode:multiply" d="M135.552 161.556C107.82 170.296 88.5393 187.558 92.4681 200.118C96.3968 212.678 122.073 215.833 149.804 207.033C177.535 198.232 196.816 181.03 192.887 168.47C188.959 155.91 163.283 152.779 135.552 161.556Z" fill="url(#paint10_radial_10_2106)"/>
<path style="mix-blend-mode:multiply" d="M165.687 117.01C170.825 145.623 185.501 166.947 198.459 164.638C211.418 162.329 217.801 137.258 212.603 108.644C207.405 80.0309 192.79 58.7067 179.831 61.0156C166.872 63.3245 160.538 88.3961 165.687 117.01Z" fill="url(#paint11_radial_10_2106)"/>
<path d="M212.459 171.577C216.472 173.052 217.294 175.844 216.291 178.552C215.287 181.26 212.87 182.856 208.856 181.381C204.843 179.906 201.422 173.076 201.422 173.076C201.422 173.076 208.445 170.102 212.459 171.577Z" fill="black"/>
<path d="M205.701 176.062C206.211 176.77 206.804 177.415 207.466 177.984C208.095 178.556 208.814 179.021 209.593 179.362C210.366 179.649 211.187 179.78 212.011 179.749C212.858 179.708 213.695 179.554 214.501 179.29C213.847 179.944 212.999 180.368 212.083 180.498C211.133 180.575 210.181 180.364 209.351 179.894C207.807 178.971 206.552 177.635 205.725 176.038C205.725 176.038 205.725 176.038 205.725 175.977C205.725 175.917 205.689 176.062 205.701 176.062Z" fill="white"/>
<path d="M191.062 198.305C193.746 201.037 193.322 203.611 191.485 205.425C189.648 207.238 187.061 207.589 184.377 204.857C181.693 202.125 181.536 195.282 181.536 195.282C181.536 195.282 188.378 195.573 191.062 198.305Z" fill="black"/>
<path d="M183.857 199.356C183.994 200.127 184.226 200.878 184.546 201.593C184.843 202.298 185.251 202.951 185.755 203.527C186.268 204.041 186.876 204.451 187.544 204.736C188.241 205.037 188.978 205.236 189.732 205.328C188.946 205.584 188.1 205.584 187.314 205.328C186.513 205.035 185.824 204.498 185.344 203.793C184.424 202.455 183.904 200.882 183.845 199.26L183.857 199.356Z" fill="white"/>
<path d="M226.336 133.547C231.087 134.03 232.743 136.823 232.381 140.026C232.018 143.23 229.878 145.635 225.127 145.152C220.377 144.668 214.768 138.249 214.768 138.249C214.768 138.249 221.634 133.075 226.336 133.547Z" fill="black"/>
<path d="M220.28 140.304C221.02 140.926 221.832 141.457 222.697 141.888C223.535 142.338 224.442 142.645 225.381 142.794C226.283 142.882 227.194 142.795 228.065 142.54C228.972 142.26 229.834 141.853 230.627 141.331C230.627 141.331 230.627 141.331 230.7 141.331C230.162 142.231 229.341 142.928 228.367 143.314C227.363 143.67 226.274 143.708 225.248 143.423C223.305 142.872 221.557 141.782 220.207 140.28V140.207L220.28 140.304Z" fill="white"/>
<path d="M211.685 72.2943C214.961 69.5623 217.79 70.2513 219.639 72.4635C221.489 74.6757 221.646 77.589 218.37 80.321C215.094 83.053 207.49 82.6179 207.49 82.6179C207.49 82.6179 208.397 75.0384 211.685 72.2943Z" fill="black"/>
<path d="M212.204 80.4055C213.07 80.3153 213.922 80.1246 214.743 79.8373C215.552 79.575 216.315 79.1875 217.003 78.6889C217.625 78.1663 218.142 77.5305 218.527 76.8152C218.924 76.0531 219.213 75.2394 219.385 74.3975C219.621 75.3038 219.557 76.2622 219.204 77.1295C218.797 77.9961 218.134 78.7174 217.306 79.1966C215.728 80.0747 213.936 80.4935 212.132 80.4055H212.204Z" fill="white"/>
<path d="M224.124 104.196C227.835 103.241 229.854 104.885 230.495 107.387C231.135 109.889 230.168 112.307 226.457 113.262C222.746 114.217 216.786 110.929 216.786 110.929C216.786 110.929 220.425 105.151 224.124 104.196Z" fill="black"/>
<path d="M221.44 110.953C222.172 111.222 222.936 111.396 223.712 111.473C224.468 111.58 225.236 111.56 225.985 111.412C226.687 111.229 227.348 110.913 227.931 110.482C228.54 110.028 229.081 109.491 229.539 108.886C229.375 109.71 228.951 110.46 228.33 111.026C227.673 111.572 226.862 111.902 226.009 111.969C224.39 112.095 222.768 111.76 221.331 111.001C221.331 111.001 221.416 110.953 221.44 110.953Z" fill="white"/>
<path d="M185.682 41.2628C188.474 37.3945 191.726 37.3582 194.337 39.244C196.948 41.1298 197.964 44.2124 195.147 48.0928C192.331 51.9732 183.977 53.6052 183.977 53.6052C183.977 53.6052 182.95 45.1432 185.682 41.2628Z" fill="black"/>
<path d="M188.511 49.882C189.424 49.5505 190.293 49.1079 191.098 48.5643C191.902 48.0667 192.621 47.4421 193.226 46.7148C193.746 45.9853 194.128 45.1655 194.35 44.2971C194.561 43.3739 194.646 42.4265 194.604 41.4805C195.109 42.402 195.299 43.4629 195.148 44.5026C194.949 45.5476 194.439 46.5083 193.685 47.2588C192.232 48.6621 190.414 49.6296 188.439 50.0512H188.378C188.356 50.0336 188.341 50.0077 188.338 49.9794C188.334 49.9511 188.342 49.9226 188.36 49.9001C188.378 49.8777 188.403 49.8632 188.432 49.8598C188.46 49.8564 188.489 49.8643 188.511 49.882Z" fill="white"/>
<path d="M125.312 23.3356C124.575 19.1167 126.594 17.0254 129.434 16.5297C132.275 16.0341 134.874 17.3397 135.599 21.5586C136.325 25.7774 132.178 32.2085 132.178 32.2085C132.178 32.2085 126.037 27.5424 125.312 23.3356Z" fill="black"/>
<path d="M132.59 26.9261C132.945 26.1328 133.209 25.3013 133.375 24.4479C133.552 23.6138 133.596 22.7573 133.508 21.9093C133.366 21.1106 133.071 20.347 132.638 19.6608C132.173 18.936 131.611 18.2773 130.97 17.7025C131.876 17.956 132.677 18.4942 133.254 19.2377C133.794 20.0243 134.085 20.9553 134.089 21.9093C134.082 23.7174 133.562 25.4864 132.59 27.0107V26.9261Z" fill="white"/>
<path d="M159.147 28.4975C160.187 24.8105 162.617 23.8797 165.107 24.5808C167.597 25.282 169.193 27.3249 168.166 31.0119C167.138 34.6989 161.287 38.265 161.287 38.265C161.287 38.265 158.12 32.2087 159.147 28.4975Z" fill="black"/>
<path d="M163.669 34.2154C164.264 33.7093 164.796 33.1329 165.253 32.4988C165.718 31.8952 166.085 31.2221 166.341 30.5042C166.53 29.7995 166.584 29.0651 166.498 28.3404C166.413 27.5865 166.217 26.8493 165.918 26.1523C166.531 26.7142 166.954 27.4539 167.127 28.2678C167.262 29.1103 167.14 29.9742 166.776 30.746C166.081 32.2154 164.977 33.4534 163.597 34.3121C163.597 34.3121 163.609 34.2275 163.669 34.2154Z" fill="white"/>
<path d="M85.4321 30.3349C83.4738 25.9709 85.0695 23.1422 88.007 21.8729C90.9445 20.6036 94.1117 21.2443 96.0701 25.5962C98.0284 29.948 95.2722 38.0232 95.2722 38.0232C95.2722 38.0232 87.4509 34.6868 85.4321 30.3349Z" fill="black"/>
<path d="M94.317 32.2084C94.4794 31.2504 94.5281 30.2766 94.4621 29.3072C94.4268 28.3566 94.239 27.4178 93.906 26.5268C93.5283 25.7024 92.9994 24.9561 92.3466 24.3267C91.6564 23.6837 90.8841 23.135 90.0498 22.6947C90.0498 22.6947 90.0498 22.6947 90.0498 22.6343C91.0947 22.6569 92.1041 23.0174 92.9269 23.6618C93.7366 24.3542 94.3146 25.2782 94.583 26.3092C95.0797 28.2711 95.0085 30.3338 94.3775 32.2568H94.317C94.317 32.2568 94.305 32.2084 94.317 32.2084Z" fill="white"/>
<path d="M39.7132 73.6481C35.6998 72.1733 34.8778 69.3809 35.8811 66.673C36.8845 63.9652 39.3142 62.3695 43.3276 63.8443C47.341 65.3191 50.7621 72.1491 50.7621 72.1491C50.7621 72.1491 43.7266 75.1229 39.7132 73.6481Z" fill="black"/>
<path d="M61.1224 46.9203C58.4388 44.1883 58.8498 41.6134 60.6993 39.8122C62.5489 38.0111 65.1237 37.6363 67.8074 40.3683C70.491 43.1003 70.6361 49.9545 70.6361 49.9545C70.6361 49.9545 63.794 49.6644 61.1224 46.9203Z" fill="black"/>
<path d="M68.3151 45.8687C68.1793 45.1014 67.9478 44.3542 67.626 43.6445C67.3287 42.9358 66.9207 42.2788 66.4172 41.6982C65.8994 41.1897 65.2931 40.78 64.6281 40.4894C63.9338 40.1941 63.2012 39.9987 62.4521 39.9091C63.2392 39.6629 64.0827 39.6629 64.8699 39.9091C65.6681 40.2134 66.358 40.7477 66.8523 41.4444C67.7719 42.7827 68.2918 44.3549 68.3513 45.9776C68.3513 45.9776 68.3272 45.8929 68.3151 45.8687Z" fill="white"/>
<path d="M25.7997 111.678C21.0489 111.195 19.4049 108.402 19.7554 105.199C20.106 101.996 22.2578 99.5899 27.0085 100.073C31.7593 100.557 37.3563 106.988 37.3563 106.988C37.3563 106.988 30.6351 112.162 25.7997 111.678Z" fill="black"/>
<path d="M31.8439 104.921C31.1058 104.296 30.2938 103.764 29.4262 103.337C28.5841 102.898 27.6787 102.592 26.7425 102.431C25.8399 102.343 24.929 102.43 24.0589 102.685C23.1533 102.968 22.291 103.375 21.4961 103.893C22.0385 102.997 22.8573 102.302 23.8292 101.911C24.8331 101.556 25.9218 101.518 26.948 101.802C28.8979 102.352 30.6507 103.447 32.001 104.957C32.001 104.957 31.9164 104.933 31.8439 104.921Z" fill="white"/>
<path d="M40.499 172.931C37.211 175.675 34.3943 174.974 32.5448 172.762C30.6952 170.549 30.526 167.648 33.8141 164.904C37.1022 162.16 44.6938 162.619 44.6938 162.619C44.6938 162.619 43.7871 170.199 40.499 172.931Z" fill="black"/>
<path d="M39.9677 164.832C39.1005 164.91 38.2471 165.101 37.4291 165.4C36.6172 165.655 35.8533 166.043 35.1686 166.548C34.5441 167.068 34.0268 167.705 33.6454 168.422C33.2587 169.188 32.9742 170 32.7993 170.84C32.5618 169.929 32.6297 168.965 32.9927 168.096C33.399 167.236 34.0565 166.519 34.8785 166.041C36.4531 165.154 38.2479 164.735 40.0524 164.832C40.0524 164.832 39.9919 164.832 39.9677 164.832Z" fill="white"/>
<path d="M28.048 141.005C24.3368 141.96 22.318 140.304 21.6773 137.802C21.0367 135.299 22.0158 132.894 25.727 131.939C29.4382 130.984 35.3978 134.272 35.3978 134.272C35.3978 134.272 31.7591 140.086 28.048 141.005Z" fill="black"/>
<path d="M30.7437 134.272C30.0091 134.011 29.2463 133.836 28.4711 133.752C27.7152 133.651 26.9479 133.671 26.1984 133.813C25.4908 133.997 24.8258 134.318 24.2401 134.756C23.6353 135.209 23.0981 135.746 22.6444 136.351H22.584C22.7469 135.527 23.1708 134.777 23.7928 134.212C24.4508 133.665 25.2615 133.336 26.1138 133.269C27.7294 133.143 29.3473 133.479 30.78 134.236V134.308L30.7437 134.272Z" fill="white"/>
<path d="M66.4898 203.962C63.6973 207.843 60.4455 207.879 57.8465 205.993C55.2475 204.107 54.2199 201.013 57.0365 197.144C59.8532 193.276 68.1942 191.632 68.1942 191.632C68.1942 191.632 69.3185 200.094 66.4898 203.962Z" fill="black"/>
<path d="M63.6725 195.403C62.7567 195.737 61.8842 196.18 61.0735 196.721C60.2738 197.23 59.5598 197.862 58.958 198.595C58.4258 199.318 58.0436 200.14 57.8338 201.012C57.6187 201.931 57.5292 202.874 57.5678 203.817C57.0614 202.9 56.8663 201.844 57.0117 200.807C57.2074 199.758 57.7225 198.795 58.4865 198.051C59.9317 196.637 61.7527 195.667 63.7329 195.258L63.6725 195.403Z" fill="white"/>
<path d="M126.871 221.901C127.597 226.108 125.59 228.212 122.749 228.695C119.908 229.179 117.309 227.885 116.572 223.678C115.834 219.472 120.053 213.089 120.053 213.089C120.053 213.089 126.134 217.682 126.871 221.901Z" fill="black"/>
<path d="M119.582 218.299C119.225 219.095 118.965 219.931 118.808 220.789C118.626 221.618 118.581 222.472 118.675 223.316C118.813 224.118 119.105 224.885 119.534 225.576C119.99 226.287 120.539 226.933 121.166 227.498C121.166 227.498 121.166 227.498 121.166 227.559C120.26 227.311 119.461 226.772 118.893 226.024C118.348 225.244 118.053 224.316 118.047 223.364C118.058 221.553 118.577 219.781 119.546 218.251H119.606L119.582 218.299Z" fill="white"/>
<path d="M93.0243 216.728C91.9968 220.415 89.5671 221.346 87.0768 220.644C84.5866 219.943 82.9788 217.9 84.0063 214.213C85.0339 210.526 90.8847 206.96 90.8847 206.96C90.8847 206.96 94.0519 213.041 93.0243 216.728Z" fill="black"/>
<path d="M88.515 211.022C87.9162 211.524 87.3804 212.096 86.9193 212.727C86.4563 213.33 86.0931 214.003 85.8434 214.721C85.6438 215.424 85.5863 216.16 85.6742 216.885C85.7637 217.638 85.9591 218.375 86.2544 219.073C85.6332 218.512 85.2093 217.766 85.0456 216.945C84.9006 216.104 85.0188 215.239 85.384 214.467C86.0857 213.005 87.1883 211.773 88.5633 210.913L88.515 211.022Z" fill="white"/>
<path d="M166.739 214.902C168.698 219.254 167.102 222.083 164.165 223.364C161.227 224.646 158.12 224.005 156.102 219.653C154.083 215.301 156.911 207.226 156.911 207.226C156.911 207.226 164.817 210.55 166.739 214.902Z" fill="black"/>
<path style="mix-blend-mode:screen" d="M18.2809 1.41911C37.1873 4.11485 45.5405 54.9591 36.9334 115.051C28.3264 175.143 6.02314 221.551 -12.8833 218.867C-31.7897 216.184 -40.1429 165.327 -31.5359 105.235C-22.9288 45.1433 -0.625546 -1.26454 18.2809 1.41911Z" fill="url(#paint12_radial_10_2106)"/>
</g>
<defs>
<linearGradient id="paint0_linear_10_2106" x1="17.4532" y1="207.982" x2="237.243" y2="46.5304" gradientUnits="userSpaceOnUse">
<stop stop-color="#86C807"/>
<stop offset="1" stop-color="#346403"/>
</linearGradient>
<linearGradient id="paint1_linear_10_2106" x1="23.2157" y1="203.84" x2="231.429" y2="50.9475" gradientUnits="userSpaceOnUse">
<stop stop-color="#00732F"/>
<stop offset="1" stop-color="#86C807"/>
</linearGradient>
<linearGradient id="paint2_linear_10_2106" x1="31.3172" y1="197.91" x2="223.434" y2="56.8378" gradientUnits="userSpaceOnUse">
<stop stop-color="#D1007E"/>
<stop offset="0.08" stop-color="#D50174"/>
<stop offset="0.21" stop-color="#E00259"/>
<stop offset="0.38" stop-color="#F1052D"/>
<stop offset="0.51" stop-color="#FF0708"/>
<stop offset="1" stop-color="#FF0708"/>
</linearGradient>
<radialGradient id="paint3_radial_10_2106" cx="0" cy="0" r="1" gradientUnits="userSpaceOnUse" gradientTransform="translate(19.8329 87.9115) rotate(-70.416) scale(87.9102 17.7588)">
<stop stop-color="white"/>
<stop offset="0.12" stop-color="#C8C8C8"/>
<stop offset="0.24" stop-color="#949494"/>
<stop offset="0.37" stop-color="#666666"/>
<stop offset="0.5" stop-color="#414141"/>
<stop offset="0.63" stop-color="#252525"/>
<stop offset="0.75" stop-color="#101010"/>
<stop offset="0.88" stop-color="#040404"/>
<stop offset="1"/>
</radialGradient>
<radialGradient id="paint4_radial_10_2106" cx="0" cy="0" r="1" gradientUnits="userSpaceOnUse" gradientTransform="translate(181.356 28.2656) rotate(27.2623) scale(87.7992 17.8065)">
<stop stop-color="white"/>
<stop offset="0.12" stop-color="#C8C8C8"/>
<stop offset="0.24" stop-color="#949494"/>
<stop offset="0.37" stop-color="#666666"/>
<stop offset="0.5" stop-color="#414141"/>
<stop offset="0.63" stop-color="#252525"/>
<stop offset="0.75" stop-color="#101010"/>
<stop offset="0.88" stop-color="#040404"/>
<stop offset="1"/>
</radialGradient>
<radialGradient id="paint5_radial_10_2106" cx="0" cy="0" r="1" gradientUnits="userSpaceOnUse" gradientTransform="translate(154.13 6.55148) rotate(9.12103) scale(87.8916 17.7355)">
<stop stop-color="white"/>
<stop offset="0.12" stop-color="#C8C8C8"/>
<stop offset="0.24" stop-color="#949494"/>
<stop offset="0.37" stop-color="#666666"/>
<stop offset="0.5" stop-color="#414141"/>
<stop offset="0.63" stop-color="#252525"/>
<stop offset="0.75" stop-color="#101010"/>
<stop offset="0.88" stop-color="#040404"/>
<stop offset="1"/>
</radialGradient>
<radialGradient id="paint6_radial_10_2106" cx="0" cy="0" r="1" gradientUnits="userSpaceOnUse" gradientTransform="translate(105.802 253.248) rotate(9.12103) scale(87.8916 17.7355)">
<stop stop-color="white"/>
<stop offset="0.12" stop-color="#C8C8C8"/>
<stop offset="0.24" stop-color="#949494"/>
<stop offset="0.37" stop-color="#666666"/>
<stop offset="0.5" stop-color="#414141"/>
<stop offset="0.63" stop-color="#252525"/>
<stop offset="0.75" stop-color="#101010"/>
<stop offset="0.88" stop-color="#040404"/>
<stop offset="1"/>
</radialGradient>
<radialGradient id="paint7_radial_10_2106" cx="0" cy="0" r="1" gradientUnits="userSpaceOnUse" gradientTransform="translate(243.549 174.885) rotate(-75.0184) scale(87.7734 17.7702)">
<stop stop-color="white"/>
<stop offset="0.12" stop-color="#C8C8C8"/>
<stop offset="0.24" stop-color="#949494"/>
<stop offset="0.37" stop-color="#666666"/>
<stop offset="0.5" stop-color="#414141"/>
<stop offset="0.63" stop-color="#252525"/>
<stop offset="0.75" stop-color="#101010"/>
<stop offset="0.88" stop-color="#040404"/>
<stop offset="1"/>
</radialGradient>
<radialGradient id="paint8_radial_10_2106" cx="0" cy="0" r="1" gradientUnits="userSpaceOnUse" gradientTransform="translate(72.3086 143.925) rotate(163.632) scale(23.8542 52.667)">
<stop stop-color="#1E4D60"/>
<stop offset="0.07" stop-color="#2D596B"/>
<stop offset="0.72" stop-color="#C3CFD5"/>
<stop offset="1" stop-color="white"/>
</radialGradient>
<radialGradient id="paint9_radial_10_2106" cx="0" cy="0" r="1" gradientUnits="userSpaceOnUse" gradientTransform="translate(125.97 48.4353) rotate(-107.482) scale(21.3109 52.695)">
<stop stop-color="#1E4D60"/>
<stop offset="0.07" stop-color="#2D596B"/>
<stop offset="0.72" stop-color="#C3CFD5"/>
<stop offset="1" stop-color="white"/>
</radialGradient>
<radialGradient id="paint10_radial_10_2106" cx="0" cy="0" r="1" gradientUnits="userSpaceOnUse" gradientTransform="translate(138.251 167.673) rotate(-107.4) scale(23.8172 52.6949)">
<stop stop-color="#1E4D60"/>
<stop offset="0.07" stop-color="#2D596B"/>
<stop offset="0.72" stop-color="#C3CFD5"/>
<stop offset="1" stop-color="white"/>
</radialGradient>
<radialGradient id="paint11_radial_10_2106" cx="0" cy="0" r="1" gradientUnits="userSpaceOnUse" gradientTransform="translate(174.06 126.153) rotate(169.936) scale(23.814 52.6951)">
<stop stop-color="#1E4D60"/>
<stop offset="0.07" stop-color="#2D596B"/>
<stop offset="0.72" stop-color="#C3CFD5"/>
<stop offset="1" stop-color="white"/>
</radialGradient>
<radialGradient id="paint12_radial_10_2106" cx="0" cy="0" r="1" gradientUnits="userSpaceOnUse" gradientTransform="translate(6.66624 112.301) rotate(-81.8699) scale(109.618 34.6862)">
<stop stop-color="white"/>
<stop offset="0.62"/>
</radialGradient>
</defs>
</svg>
