<svg width="276" height="276" viewBox="0 0 276 276" fill="none" xmlns="http://www.w3.org/2000/svg">
<path opacity="0.6" d="M205.233 16.0905C181.845 3.48163 155.243 -1.90888 128.792 0.600637C102.34 3.11015 77.2267 13.407 56.627 30.1891C36.0274 46.9712 20.8667 69.4848 13.0621 94.8831C5.25744 120.281 5.1594 147.424 12.7804 172.878C20.4013 198.332 35.399 220.954 55.8769 237.885C76.3548 254.815 101.393 265.293 127.826 267.994C154.259 270.694 180.899 265.496 204.377 253.056C227.856 240.617 247.118 221.494 259.729 198.107C276.638 166.743 280.395 129.947 270.176 95.8132C259.956 61.6789 236.595 33.0021 205.233 16.0905ZM110.884 191.082C99.66 185.034 90.4818 175.793 84.5102 164.528C78.5386 153.263 76.0418 140.48 77.3356 127.796C78.6294 115.112 83.6557 103.097 91.7787 93.2695C99.9018 83.4422 110.757 76.2447 122.971 72.5872C135.185 68.9296 148.209 68.9763 160.396 72.7214C172.584 76.4665 183.387 83.7418 191.439 93.627C199.491 103.512 204.431 115.563 205.634 128.256C206.837 140.949 204.248 153.714 198.196 164.936C190.083 179.979 176.327 191.184 159.954 196.087C143.58 200.99 125.93 199.19 110.884 191.082Z" fill="#CBD0D2"/>
<path d="M198.125 23.1988C174.735 10.5863 148.131 5.19303 121.676 7.70111C95.2205 10.2092 70.1033 20.506 49.5003 37.2893C28.8973 54.0726 13.7339 76.5886 5.92771 101.99C-1.87846 127.391 -1.9768 154.537 5.64512 179.994C13.267 205.451 28.2669 228.077 48.7477 245.009C69.2286 261.941 94.2706 272.419 120.707 275.119C147.143 277.819 173.786 272.618 197.267 260.176C220.747 247.733 240.011 228.607 252.621 205.216C269.53 173.852 273.288 137.056 263.068 102.921C252.848 68.7872 229.488 40.1104 198.125 23.1988ZM103.764 198.19C92.5419 192.141 83.3656 182.899 77.3957 171.634C71.4259 160.369 68.9307 147.586 70.2257 134.903C71.5207 122.22 76.5477 110.205 84.671 100.379C92.7943 90.5532 103.649 83.3566 115.862 79.6997C128.076 76.0428 141.099 76.0898 153.286 79.8348C165.473 83.5798 176.275 90.8545 184.328 100.739C192.38 110.624 197.32 122.674 198.523 135.366C199.727 148.058 197.139 160.822 191.088 172.044C182.975 187.09 169.217 198.298 152.841 203.201C136.465 208.105 118.812 206.302 103.764 198.19Z" fill="#3A8428"/>
<g opacity="0.6">
<path opacity="0.6" d="M91.4076 245.875C76.7174 239.039 61.7902 232.133 45.7494 229.739C41.2872 229.075 36.7787 228.769 32.2676 228.827C35.9984 233.181 40.0029 237.292 44.2567 241.136C58.5797 240.994 74.7982 240.378 91.4076 245.875Z" fill="#327220"/>
<path opacity="0.6" d="M17.9336 208.486C20.61 213.156 23.5694 217.658 26.7951 221.968C42.3146 224.266 60.8315 225.119 78.7559 233.933C65.1793 225.166 51.2828 216.269 35.7396 211.696C29.9357 209.994 23.9664 208.918 17.9336 208.486Z" fill="#327220"/>
<path opacity="0.6" d="M52.9889 246.55C51.9819 246.337 50.9749 246.171 49.9561 246.005C56.0148 250.896 62.4834 255.256 69.2903 259.037C78.9853 259.779 88.524 261.906 97.6164 265.351C83.3526 257.663 68.8401 249.95 52.9889 246.55Z" fill="#327220"/>
<path opacity="0.6" d="M7.33008 185.159C9.00225 190.005 10.9483 194.751 13.1588 199.376C28.5598 204.482 47.8467 207.976 65.084 220.131C53.0001 209.374 40.7148 198.416 26.0838 191.462C20.0995 188.637 13.8055 186.522 7.33008 185.159Z" fill="#327220"/>
</g>
<path d="M94.7036 58.7796C116.855 49.8387 131.813 35.1587 128.113 25.991C124.413 16.8233 103.456 16.6394 81.3037 25.5803C59.1519 34.5212 44.194 49.2012 47.8943 58.3689C51.5946 67.5367 72.5518 67.7205 94.7036 58.7796Z" fill="#4C9936"/>
<path d="M168.652 252.764C189.232 244.457 203.128 230.818 199.69 222.299C196.252 213.781 176.781 213.609 156.201 221.916C135.62 230.222 121.724 243.862 125.162 252.38C128.6 260.899 148.071 261.07 168.652 252.764Z" fill="#4C9936"/>
<path d="M253.048 146.881C253.439 138.268 244.613 130.224 243.084 121.824C241.556 113.425 246.994 102.751 243.629 94.8608C240.265 86.9707 228.88 83.5588 223.809 76.5691C218.739 69.5794 219.189 57.7561 212.602 52.1051C206.264 46.5726 194.512 48.4325 186.799 44.2624C179.087 40.0923 174.171 29.2049 166.067 26.954C157.691 24.5846 147.894 31.444 139.412 31.0649C130.929 30.6858 121.641 23.0327 113.242 24.5491C104.842 26.0655 98.9186 36.4671 91.0167 39.8198C83.1147 43.1725 71.5877 40.2108 64.6098 45.2694C57.6319 50.3281 56.8856 62.1276 51.199 68.6909C45.6665 75.029 33.9617 77.3865 29.8034 85.0989C25.6451 92.8113 30.1114 103.888 27.8605 111.992C25.4911 120.367 16.0135 127.57 15.67 136.053C15.3264 144.535 24.105 152.686 25.6333 161.097C27.1615 169.509 21.7238 180.171 25.0883 188.061C28.4528 195.951 39.8496 199.363 44.9083 206.353C49.9669 213.342 49.576 225.154 56.1155 230.876C62.4536 236.408 74.2058 234.548 81.9182 238.707C89.6306 242.865 94.5471 253.717 102.65 255.968C111.026 258.337 120.824 251.478 129.306 251.857C137.788 252.236 147.077 259.889 155.476 258.361C163.876 256.833 169.811 246.395 177.725 243.09C185.638 239.785 197.154 242.699 204.143 237.64C211.133 232.582 211.82 220.782 217.542 214.231C223.075 207.893 234.78 205.547 238.938 197.835C243.096 190.122 238.63 179.045 240.881 170.942C243.191 162.566 252.669 155.363 253.048 146.881ZM191.088 172.044C185.037 183.262 175.795 192.433 164.531 198.399C153.267 204.365 140.488 206.857 127.808 205.559C115.128 204.262 103.118 199.234 93.2952 191.112C83.4728 182.989 76.2796 172.136 72.6251 159.925C68.9706 147.714 69.019 134.694 72.7641 122.51C76.5093 110.327 83.783 99.5275 93.6654 91.4778C103.548 83.4282 115.595 78.4897 128.285 77.2868C140.974 76.0838 153.735 78.6705 164.954 84.7198C172.404 88.737 178.99 94.1824 184.336 100.745C189.681 107.308 193.682 114.859 196.109 122.968C198.535 131.077 199.341 139.585 198.48 148.006C197.618 156.426 195.107 164.594 191.088 172.044Z" fill="#FF5F99"/>
<path d="M94.7017 58.787C115.28 50.4941 129.627 37.2373 128.608 28.0441C123.407 25.9353 118.194 23.6607 113.207 24.5492C104.807 26.042 98.9193 36.4673 91.0173 39.82C83.1154 43.1727 71.5883 40.2109 64.6104 45.2696C59.2082 49.1791 57.5023 57.3179 54.3154 63.8101C62.9637 66.9732 78.5069 65.3265 94.7017 58.787Z" fill="#FC7AAF"/>
<path d="M199.689 222.311C196.254 213.781 176.777 213.615 156.199 221.92C135.621 230.224 121.961 243.635 125.089 252.177C126.479 251.916 127.893 251.805 129.306 251.845C135.976 252.153 142.954 256.773 149.671 258.16C154.015 257.451 158.297 256.406 162.478 255.032C167.62 251.241 172.169 245.448 177.701 243.09C181.066 241.657 185.117 241.372 189.193 241.135C197.486 234.549 201.774 227.44 199.689 222.311Z" fill="#FC7AAF"/>
<path opacity="0.5" d="M164.041 71.6058C150.226 65.7355 134.98 64.0938 120.232 66.8884C105.484 69.683 91.8961 76.7883 81.1863 87.3057C70.4765 97.8232 63.1262 111.28 60.0648 125.975C57.0035 140.67 58.3687 155.943 63.9877 169.862C69.6067 183.782 79.2272 195.722 91.6325 204.173C104.038 212.624 118.671 217.207 133.681 217.342C148.691 217.476 163.403 213.157 175.958 204.93C188.513 196.702 198.346 184.936 204.214 171.12C208.119 161.949 210.178 152.099 210.272 142.131C210.366 132.164 208.494 122.276 204.762 113.033C201.031 103.79 195.514 95.3735 188.527 88.2649C181.539 81.1564 173.219 75.4954 164.041 71.6058ZM191.088 172.044C185.036 183.262 175.795 192.434 164.531 198.4C153.267 204.365 140.487 206.857 127.808 205.56C115.128 204.263 103.117 199.235 93.295 191.112C83.4726 182.989 76.2793 172.136 72.6249 159.925C68.9704 147.714 69.0188 134.694 72.7639 122.511C76.509 110.327 83.7827 99.5281 93.6652 91.4784C103.548 83.4288 115.595 78.4903 128.284 77.2874C140.973 76.0844 153.734 78.6712 164.953 84.7204C179.998 92.8358 191.203 106.595 196.104 122.97C201.005 139.346 199.2 156.999 191.088 172.044Z" fill="#C92879"/>
<path d="M86.0173 74.9937C87.664 79.069 81.006 85.656 71.1612 89.5773C61.3164 93.4986 52.0046 93.4631 50.3579 89.3877C48.7112 85.3124 55.3573 78.7847 65.1785 74.816C74.9996 70.8472 84.3706 70.9183 86.0173 74.9937Z" fill="#FC7AAF"/>
<path d="M198.576 168.739C203.972 156.039 205.481 142.025 202.913 128.467C200.344 114.91 193.812 102.419 184.145 92.5735C174.477 82.7281 162.106 75.9707 148.598 73.1558C135.09 70.3409 121.05 71.5948 108.254 76.7592C95.4583 81.9235 84.4814 90.7663 76.7113 102.169C68.9412 113.572 64.727 127.023 64.6015 140.821C64.4761 154.619 68.445 168.144 76.0064 179.687C83.5679 191.229 94.3822 200.27 107.082 205.666C124.112 212.899 143.317 213.072 160.475 206.147C177.633 199.222 191.337 185.767 198.576 168.739ZM77.6304 110.867C83.6817 99.6487 92.9235 90.4771 104.187 84.5113C115.451 78.5456 128.231 76.0538 140.91 77.351C153.59 78.6482 165.601 83.6761 175.423 91.799C185.246 99.9219 192.439 110.775 196.093 122.986C199.748 135.197 199.699 148.217 195.954 160.4C192.209 172.584 184.935 183.383 175.053 191.433C165.17 199.482 153.123 204.421 140.434 205.624C127.745 206.827 114.984 204.24 103.765 198.191C88.7204 190.075 77.5155 176.317 72.6145 159.941C67.7135 143.565 69.5177 125.913 77.6304 110.867Z" fill="#C92879"/>
<path d="M138.074 37.3561C131.404 37.3561 135.195 49.5348 138.074 49.5348C140.952 49.5348 144.755 37.3561 138.074 37.3561Z" fill="#2B2B2B"/>
<path d="M238.5 143.706C238.405 137.036 226.286 141.005 226.321 143.884C226.357 146.763 238.595 150.435 238.5 143.706Z" fill="#2B2B2B"/>
<path d="M199.914 222.406C204.949 218.022 194.086 211.329 191.918 213.213C189.75 215.096 194.879 226.789 199.914 222.406Z" fill="#2B2B2B"/>
<path d="M157.822 50.3994C152.965 49.0014 153.19 58.6923 155.287 59.2609C157.384 59.8296 162.68 51.7855 157.822 50.3994Z" fill="#2B2B2B"/>
<path d="M178.128 44.9142C174.87 43.2793 173.745 50.1624 175.155 50.8377C176.564 51.5129 181.398 46.5491 178.128 44.9142Z" fill="#2B2B2B"/>
<path d="M232.861 180.622C234.342 177.281 227.411 176.487 226.772 177.92C226.132 179.354 231.38 183.962 232.861 180.622Z" fill="#2B2B2B"/>
<path d="M136.497 247.438C140.146 247.497 138.192 240.804 136.628 240.78C135.064 240.756 132.849 247.367 136.497 247.438Z" fill="#424242"/>
<path d="M44.6124 197.823C46.4368 200.987 51.1756 195.857 50.3818 194.494C49.5881 193.132 42.7879 194.708 44.6124 197.823Z" fill="#2B2B2B"/>
<path d="M29.3186 127.215C28.6907 130.769 35.6093 129.916 35.8818 128.4C36.1543 126.884 29.9465 123.626 29.3186 127.215Z" fill="#2B2B2B"/>
<path d="M78.0217 51.6671C74.8585 53.4797 79.9764 58.2185 81.3388 57.4366C82.7012 56.6547 81.1848 49.8427 78.0217 51.6671Z" fill="#424242"/>
<path d="M189.927 66.0257C186.373 63.0403 182.949 71.1436 184.465 72.4349C185.982 73.7262 193.434 69.023 189.927 66.0257Z" fill="#2B2B2B"/>
<path d="M225.907 161.346C227.21 156.915 218.384 157.069 217.827 158.977C217.27 160.884 224.615 165.765 225.907 161.346Z" fill="#2B2B2B"/>
<path d="M107.093 231.078C111.405 232.736 111.974 223.969 110.114 223.223C108.254 222.477 102.781 229.431 107.093 231.078Z" fill="#2B2B2B"/>
<path d="M45.9515 172.459C47.1362 176.901 54.5998 172.162 54.0786 170.243C53.5573 168.324 44.7432 168.004 45.9515 172.459Z" fill="#2B2B2B"/>
<path d="M119.212 49.0013C114.616 49.4278 118.028 57.5667 119.971 57.389C121.913 57.2113 123.797 48.5511 119.212 49.0013Z" fill="#2B2B2B"/>
<path d="M226.831 124.372C226.049 119.385 217.353 123.661 217.72 125.806C218.088 127.95 227.613 129.383 226.831 124.372Z" fill="#2B2B2B"/>
<path d="M167.062 229.632C171.801 227.997 166.15 220.155 164.089 220.901C162.027 221.647 162.253 231.255 167.062 229.632Z" fill="#424242"/>
<path d="M64.1356 203.995C67.3935 207.857 72.5943 199.707 71.2438 198.072C69.8932 196.437 60.8777 200.192 64.1356 203.995Z" fill="#2B2B2B"/>
<path d="M44.8016 112.774C43.143 117.513 52.7983 117.88 53.5091 115.819C54.2199 113.757 46.472 108.011 44.8016 112.774Z" fill="#2B2B2B"/>
<path d="M96.2653 55.4816C91.5857 57.4127 97.758 64.8407 99.8194 64.0114C101.881 63.1821 100.933 53.5624 96.2653 55.4816Z" fill="#2B2B2B"/>
<path d="M223.205 87.0655C219.521 81.4974 211.453 91.4015 213.04 93.7946C214.628 96.1877 226.889 92.6336 223.205 87.0655Z" fill="#2B2B2B"/>
<path d="M222.306 197.278C225.682 191.52 213.243 188.641 211.797 191.117C210.352 193.593 218.929 203.035 222.306 197.278Z" fill="#2B2B2B"/>
<path d="M154.031 243.742C160.535 242.249 154.102 231.231 151.295 231.895C148.487 232.558 147.527 245.211 154.031 243.742Z" fill="#424242"/>
<path d="M73.1046 225.699C78.6371 229.431 82.2979 217.205 79.9048 215.605C77.5117 214.006 67.5484 221.979 73.1046 225.699Z" fill="#2B2B2B"/>
<path d="M30.219 143.955C30.6218 150.625 42.5517 146.099 42.3859 143.232C42.22 140.365 29.8281 137.297 30.219 143.955Z" fill="#2B2B2B"/>
<path d="M55.5947 73.2759C51.4127 78.4767 63.2834 83.1681 65.0723 80.9172C66.8611 78.6663 59.7885 68.0751 55.5947 73.2759Z" fill="#2B2B2B"/>
<path d="M96.2655 55.4816C95.943 55.5945 95.6459 55.7701 95.3914 55.9981C95.137 56.2261 94.93 56.5022 94.7825 56.8104C94.635 57.1186 94.5498 57.4529 94.5319 57.7942C94.514 58.1354 94.5636 58.4768 94.678 58.7988C96.3839 58.1117 98.0425 57.3929 99.6537 56.6426C99.3486 56.0486 98.8253 55.5959 98.1935 55.3794C97.5618 55.1629 96.8708 55.1996 96.2655 55.4816Z" fill="#424242"/>
<path d="M199.689 222.31C198.564 219.515 195.72 217.631 191.681 216.636C192.664 220.415 196.218 225.379 199.76 222.559C199.744 222.474 199.72 222.391 199.689 222.31Z" fill="#424242"/>
<path d="M57.0166 79.1758C59.7414 81.2254 64.1248 82.1968 65.0962 80.9174C65.8426 79.9933 65.0962 77.6002 63.5561 75.5151C61.2688 76.5326 59.0798 77.758 57.0166 79.1758Z" fill="#424242"/>
<path opacity="0.6" d="M214.664 33.7308C214.664 33.9204 214.664 34.1099 214.664 34.2995C216.086 44.9618 220.588 55.008 224.924 64.8528C222.187 56.1334 221.962 47.6155 222.104 39.7491C219.727 37.664 217.247 35.6579 214.664 33.7308Z" fill="#327220"/>
<path opacity="0.6" d="M217.318 54.4751C213.396 46.5613 211.797 38.4817 210.719 30.9233C207.994 29.0515 205.198 27.2744 202.308 25.5803C202.33 25.6883 202.357 25.7951 202.391 25.9002C205.483 36.2189 211.442 45.424 217.318 54.4751Z" fill="#327220"/>
<path opacity="0.6" d="M232.221 49.3095C230.112 47.0586 227.912 44.8787 225.622 42.77C225.622 53.5389 228.608 64.0945 231.605 74.3895C230.041 65.4451 230.953 57.0337 232.221 49.3095Z" fill="#327220"/>
<g opacity="0.5">
<path d="M28.1689 192.503C32.9788 197.515 40.9163 200.796 44.9087 206.341C45.8046 207.612 46.5481 208.983 47.1241 210.428C53.4501 213.01 59.473 216.279 65.0841 220.178C53.5807 209.895 41.8877 199.481 28.1689 192.503Z" fill="#C92879"/>
<path d="M49.2803 216.849C50.062 219.842 51.076 222.769 52.3131 225.604C61.4687 227.13 70.3679 229.921 78.7555 233.897C69.2187 227.795 59.5516 221.588 49.2803 216.849Z" fill="#C92879"/>
<path d="M89.6904 245.341C90.2591 245.518 90.8751 245.684 91.4082 245.874L89.2402 244.867L89.6904 245.341Z" fill="#C92879"/>
<path d="M65.0717 234.69C63.0222 233.968 60.9726 233.304 58.8994 232.7C60.8643 233.622 62.9383 234.291 65.0717 234.69Z" fill="#C92879"/>
</g>
</svg>
