<svg width="310" height="291" viewBox="0 0 310 291" fill="none" xmlns="http://www.w3.org/2000/svg">
<path d="M16.0619 67.7018C-21.8452 135.591 9.6349 225.465 86.395 268.429C163.155 311.392 256.031 291.204 293.938 223.315C331.845 155.426 300.365 65.5518 223.605 22.5762C146.845 -20.3994 53.9569 -0.199155 16.0619 67.7018ZM210.254 176.465C195.217 203.431 158.195 211.521 127.661 194.418C97.1268 177.315 84.6124 141.555 99.6976 114.54C114.783 87.5255 151.756 79.5328 182.278 96.5384C212.8 113.544 225.339 149.45 210.254 176.465Z" fill="#F3D03D"/>
<path d="M55.3905 215.004C66.6869 210.278 69.4992 191.278 61.6718 172.566C53.8443 153.854 38.3413 142.516 27.0448 147.241C15.7484 151.967 12.9362 170.967 20.7636 189.679C28.5911 208.391 44.094 219.729 55.3905 215.004Z" fill="#FFE36C"/>
<path d="M91.5412 217.393C97.9434 214.715 99.5353 203.943 95.0968 193.332C90.6584 182.722 81.8702 176.291 75.4681 178.969C69.0659 181.647 67.4741 192.42 71.9125 203.03C76.351 213.641 85.1391 220.071 91.5412 217.393Z" fill="#FFE36C"/>
<path d="M286.593 170.09C296.102 169.337 302.799 155.962 301.551 140.216C300.304 124.47 291.584 112.316 282.075 113.069C272.566 113.823 265.869 127.198 267.116 142.944C268.364 158.69 277.084 170.844 286.593 170.09Z" fill="#FFE36C"/>
<g opacity="0.5">
<path d="M219.825 213.802C248.801 212.043 272.549 225.931 292.04 225.931C292.61 224.96 293.18 223.99 293.738 222.996C294.745 221.201 295.691 219.357 296.601 217.55C287.969 213.49 278.729 210.875 269.25 209.812C252.767 207.98 236.163 210.891 219.825 213.802Z" fill="#D6AF0F"/>
<path d="M279.56 236.713C268.784 229.662 256.582 225.081 243.829 223.299C227.394 221.031 210.717 223.493 194.307 225.967C228.267 224.754 254.526 244.912 275.849 238.957C270.488 242.232 265.196 245.624 259.972 249.133C249.487 241.66 237.473 236.61 224.798 234.348C208.461 231.449 191.699 233.293 175.216 235.137C209.916 235.282 235.714 257.211 257.522 250.831C253.584 253.524 249.687 256.273 245.83 259.079C234.362 253.018 221.687 249.591 208.728 249.048C192.16 248.381 175.798 252.444 159.703 256.483C193.906 251.996 222.276 270.031 243.004 261.177C238.912 264.193 234.869 267.29 230.875 270.468C218.626 266.287 205.6 264.886 192.742 266.368C176.271 268.285 160.746 274.858 145.439 281.36C177.096 272.02 206.702 283.882 225.926 274.422C221.875 277.745 217.909 281.153 213.979 284.622C215.095 284.307 216.211 283.967 217.315 283.628C217.776 283.215 218.237 282.803 218.71 282.415C218.528 282.73 218.37 283.045 218.188 283.373C219.219 283.045 220.238 282.694 221.257 282.354C221.051 281.808 220.869 281.263 220.65 280.729C225.85 276.306 231.158 271.996 236.576 267.8C234.499 270.937 233.011 274.426 232.185 278.097C235.12 276.811 238.003 275.429 240.833 273.949C240.214 271.341 239.499 268.746 238.65 266.211C243.259 262.677 247.944 259.237 252.707 255.889C250.003 260.139 248.34 264.968 247.855 269.983C251.001 268.091 254.057 266.069 257.025 263.918C256.164 260.876 255.135 257.884 253.944 254.955C258.052 252.085 262.208 249.287 266.412 246.562C264.175 250.606 262.862 255.097 262.568 259.71C265.341 257.462 268.03 255.105 270.633 252.638C269.76 250.285 268.814 247.957 267.734 245.689C273.896 241.718 280.158 237.914 286.522 234.275C287.165 233.366 287.735 232.444 288.414 231.522C285.503 233.22 282.52 234.943 279.56 236.713Z" fill="#D6AF0F"/>
<path opacity="0.5" d="M174.027 285.605C168.995 286.73 164.056 288.239 159.254 290.117C176.525 291.387 193.887 289.83 210.656 285.508C198.577 282.944 186.092 282.977 174.027 285.605Z" fill="#D6AF0F"/>
</g>
<path opacity="0.5" d="M87.6973 107.57C69.5299 140.227 84.6089 183.471 121.489 204.146C158.369 224.821 203.048 215.073 221.276 182.439C239.504 149.806 224.365 106.538 187.473 85.8627C150.581 65.1876 105.925 74.8999 87.6973 107.57ZM209.698 175.944C194.679 202.896 157.702 210.981 127.205 193.888C96.7084 176.794 84.2092 141.053 99.276 114.053C114.343 87.0524 151.271 79.0641 181.756 96.0606C212.241 113.057 224.765 148.944 209.698 175.944Z" fill="#D6AF0F"/>
<path d="M94.0464 110.771C77.4176 140.629 91.2265 180.159 124.883 199.068C158.54 217.977 199.325 209.081 215.954 179.224C232.583 149.366 218.774 109.823 185.105 90.9265C151.436 72.0299 110.675 80.9131 94.0464 110.771ZM210.169 175.967C195.162 202.945 158.213 211.038 127.739 193.928C97.2656 176.818 84.7759 141.042 99.8313 114.015C114.887 86.9892 151.787 78.9931 182.249 96.0061C212.711 113.019 225.224 148.941 210.169 175.967Z" fill="#D6AF0F"/>
<g opacity="0.5">
<path d="M49.0869 110.949C50.2998 98.5292 51.5976 85.9152 49.2931 73.6409C47.4891 64.0359 43.5515 54.9586 37.7707 47.0787C40.245 44.2325 42.7638 41.4307 45.327 38.6734C40.5604 55.6538 59.1539 74.1503 61.0945 100.785C61.6281 88.3167 62.1375 75.6421 59.1175 63.5375C56.7465 54.0988 52.3097 45.3041 46.1275 37.788C50.1138 33.5187 54.2174 29.3585 58.4383 25.3075C52.1555 41.4024 67.5349 62.0093 65.8489 88.2682C68.0807 75.9939 70.3245 63.5012 68.9903 51.0934C67.9542 41.4958 64.8062 32.2466 59.7724 24.0097C61.9192 21.9235 64.0539 19.9829 66.2735 17.9574C64.8746 18.7256 63.4919 19.5341 62.1254 20.3832C59.0447 23.2334 56.061 26.1201 53.053 29.0917C52.1676 28.7763 51.2822 28.5095 50.3847 28.2426C47.8862 30.1226 45.4725 32.0754 43.1074 34.1251C45.7786 33.6204 48.3482 32.6778 50.7122 31.3355C47.397 34.7154 44.1626 38.16 41.0091 41.6693C39.5537 41.1113 38.0619 40.6141 36.57 40.1532C34.5809 42.1423 32.6645 44.1921 30.7967 46.3267C33.8567 45.9069 36.8083 44.9065 39.493 43.3794C37.0673 46.0599 34.7628 48.7768 32.4705 51.5421C30.7603 51.1176 29.038 50.8023 27.3036 50.5233C25.4357 52.852 23.6527 55.2536 21.9547 57.7278C25.1458 56.9454 28.1508 55.5398 30.7967 53.5919C28.3709 56.5513 26.0017 59.5472 23.6891 62.5794C22.1002 62.4459 20.4993 62.3974 18.9104 62.3853C17.8431 64.0955 16.8121 65.8178 15.8176 67.6007C15.3081 68.5104 14.8108 69.4322 14.3136 70.3661C16.6683 69.3549 18.8658 68.011 20.8389 66.3757C18.1948 69.9416 15.6316 73.5802 13.1492 77.2916C12.3972 77.2916 11.6573 77.2916 10.9054 77.4008C10.0321 79.3414 9.21945 81.2942 8.47959 83.2711C9.08603 82.786 9.69247 82.2766 10.214 81.7429C9.26796 83.1741 8.34619 84.6053 7.43653 86.0487C6.8786 87.589 6.34494 89.1294 5.84766 90.6819C6.64816 89.3598 7.46079 88.0378 8.27342 86.7279C2.97312 101.925 14.3985 122.957 10.214 147.372C13.7192 135.401 17.2609 123.224 17.2487 110.743C17.2221 101.038 15.0389 91.4593 10.8569 82.7011C12.8703 79.6204 14.9362 76.5801 17.0547 73.5802C12.1061 90.1361 29.1835 109.421 29.5838 135.716C30.7967 123.296 32.0095 110.67 29.6808 98.4079C27.8443 88.8576 23.9087 79.8346 18.1584 71.9913C21.1421 67.8109 24.2229 63.6952 27.4006 59.6442C21.5181 75.7755 37.3705 96.0671 36.1576 122.326C38.1346 110.003 40.1116 97.474 38.5834 85.1026C37.3338 75.46 33.953 66.2165 28.6863 58.0432C31.4193 54.6067 34.2048 51.2349 37.043 47.9277C31.209 64.6413 48.6988 84.1687 49.0869 110.949Z" fill="#D6AF0F"/>
<path d="M71.6225 74.4171C75.7584 62.64 79.9186 50.6568 80.5493 38.1883C80.9838 29.5305 79.6933 20.8726 76.7529 12.7178C75.3096 13.3485 73.8906 14.0156 72.4715 14.6948C67.2318 29.6011 76.947 50.778 71.6225 74.4171Z" fill="#D6AF0F"/>
<path d="M2.31836 104.218C3.53701 100.663 4.44999 97.0113 5.04735 93.3016C3.95575 96.8837 3.04609 100.522 2.31836 104.218Z" fill="#D6AF0F"/>
</g>
</svg>
