<svg width="329" height="326" viewBox="0 0 329 326" fill="none" xmlns="http://www.w3.org/2000/svg">
<path opacity="0.6" d="M184.18 0.682012C152.962 -2.22299 121.584 4.19472 94.0132 19.1236C66.4427 34.0524 43.9184 56.8218 29.2887 84.5523C14.659 112.283 8.5812 143.729 11.8238 174.914C15.0664 206.098 27.4837 235.621 47.5056 259.749C67.5275 283.876 94.2545 301.524 124.307 310.462C154.359 319.399 186.386 319.224 216.339 309.958C246.292 300.693 272.824 282.753 292.58 258.408C312.337 234.063 324.431 204.406 327.332 173.187C331.222 131.329 318.326 89.64 291.48 57.2896C264.634 24.9392 226.038 4.57708 184.18 0.682012ZM162.461 234.259C147.49 232.867 133.267 227.068 121.591 217.594C109.916 208.121 101.31 195.399 96.863 181.036C92.4158 166.673 92.3264 151.314 96.6062 136.901C100.886 122.487 109.343 109.666 120.907 100.057C132.472 90.4487 146.626 84.4843 161.58 82.918C176.534 81.3517 191.616 84.2537 204.921 91.2573C218.226 98.2609 229.156 109.052 236.33 122.266C243.503 135.48 246.598 150.524 245.224 165.496C244.308 175.446 241.441 185.118 236.785 193.958C232.129 202.799 225.776 210.635 218.09 217.019C210.403 223.403 201.534 228.209 191.988 231.162C182.443 234.115 172.409 235.158 162.461 234.231V234.259Z" fill="#1C96C6" fill-opacity="0.14"/>
<path d="M175.634 9.22742C144.416 6.32242 113.038 12.7401 85.4673 27.669C57.8968 42.5978 35.3725 65.3672 20.7428 93.0977C6.11314 120.828 0.0353022 152.274 3.27791 183.459C6.52051 214.644 18.9379 244.167 38.9597 268.294C58.9816 292.422 85.7086 310.07 115.761 319.007C145.813 327.944 177.841 327.769 207.793 318.503C237.746 309.238 264.278 291.298 284.035 266.953C303.791 242.608 315.885 212.951 318.786 181.733C322.676 139.875 309.78 98.1854 282.934 65.835C256.088 33.4846 217.492 13.1225 175.634 9.22742ZM153.915 242.804C138.944 241.412 124.721 235.613 113.045 226.14C101.37 216.667 92.7643 203.944 88.3171 189.582C83.8699 175.219 83.7805 159.86 88.0603 145.446C92.34 131.033 100.797 118.211 112.362 108.603C123.926 98.9941 138.08 93.0297 153.034 91.4634C167.988 89.8971 183.07 92.7991 196.375 99.8027C209.68 106.806 220.61 117.597 227.784 130.811C234.957 144.025 238.052 159.069 236.678 174.042C235.763 183.991 232.895 193.663 228.239 202.504C223.583 211.345 217.23 219.181 209.544 225.564C201.857 231.948 192.988 236.754 183.442 239.707C173.897 242.661 163.863 243.703 153.915 242.776V242.804Z" fill="#F4EBD4"/>
<path d="M139.729 324.143C137.706 313.343 133.693 303.012 127.893 293.679C118.977 279.436 106.202 268.042 93.6113 256.848C113.551 279.094 117.24 307.124 129.844 322.548C133.111 323.165 136.405 323.697 139.729 324.143Z" fill="#E0D0AD"/>
<path d="M148.959 296.527C140.883 281.757 128.791 269.665 116.87 257.787C135.385 281.002 137.536 309.06 149.072 325.183C152.305 325.439 155.539 325.581 158.743 325.638C157.207 315.437 153.895 305.585 148.959 296.527Z" fill="#E0D0AD"/>
<path d="M211.825 306.696C200.516 294.22 185.932 285.333 171.562 276.517C187.684 289.121 196.813 305.742 205.857 319.116C210.13 317.863 214.261 316.438 218.348 314.843C216.334 312.003 214.156 309.283 211.825 306.696Z" fill="#E0D0AD"/>
<path d="M167.858 298.621C160.737 283.396 149.343 270.606 138.105 258.044C154.598 281.502 155.666 308.563 165.252 325.525C168.698 325.421 172.126 325.222 175.535 324.927C174.354 315.814 171.764 306.939 167.858 298.621Z" fill="#E0D0AD"/>
<path d="M81.8899 304.489C87.4651 307.685 93.2297 310.539 99.1518 313.034C95.7854 302.881 90.5971 293.426 83.8411 285.133C73.2019 272.101 59.1019 262.345 45.2012 252.917C63.4885 268.768 71.6638 289.805 81.8899 304.489Z" fill="#E0D0AD"/>
<path d="M117.454 319.515C116.18 308.247 112.752 297.329 107.356 287.355C99.3235 272.557 87.2601 260.422 75.3818 248.516C93.8971 271.959 95.9195 300.23 107.613 316.367C110.846 317.521 114.122 318.56 117.454 319.515Z" fill="#E0D0AD"/>
<path d="M153.758 267.045C170.849 285.332 176.546 307.907 185.647 323.673C189.763 323.032 193.822 322.249 197.824 321.266C195.52 314.901 192.49 308.822 188.794 303.15C179.579 289.064 166.576 278.012 153.758 267.045Z" fill="#E0D0AD"/>
<path d="M170.393 10.4379C170.393 9.91094 170.393 9.36971 170.393 8.84273C165.708 8.55788 161.036 8.48667 156.407 8.60061C158.13 26.0477 160.894 45.859 155.994 66.8667C162.617 48.5366 169.268 29.8789 170.393 10.4379Z" fill="#E0D0AD"/>
<path d="M146.879 24.3669C148.135 19.3045 148.997 14.1523 149.456 8.95654C144.4 9.31261 139.387 9.9108 134.459 10.7511C132.066 30.1779 132.565 53.8347 122.268 77.1354C132.152 60.3435 142.15 43.2667 146.879 24.3669Z" fill="#E0D0AD"/>
<path d="M123.962 12.8887C115.406 14.9426 107.036 17.7057 98.9384 21.1493C89.2393 33.9676 78.3722 47.9395 62.4775 58.5501C79.8107 49.6771 97.4144 40.6046 111.543 27.2166C116.117 22.8353 120.275 18.0387 123.962 12.8887Z" fill="#E0D0AD"/>
<path d="M175.635 9.22754C175.834 21.8891 175.165 35.3768 171.049 49.192C176.475 36.5304 181.944 23.7264 185.505 10.4666C182.243 9.96814 178.968 9.54087 175.635 9.22754Z" fill="#E0D0AD"/>
<path d="M217.037 25.9913C217.678 23.8407 218.319 21.7186 218.946 19.511C218.632 19.3828 218.305 19.2404 217.977 19.1265C217.735 21.391 217.436 23.684 217.037 25.9913Z" fill="#E0D0AD"/>
<path d="M197.767 12.873C197.688 20.9285 196.733 28.9515 194.919 36.8005C197.625 29.3089 200.345 21.7604 202.71 14.1406C201.1 13.6849 199.434 13.2718 197.767 12.873Z" fill="#E0D0AD"/>
<path d="M64.0023 145.329C67.6769 148.989 63.4611 159.144 54.6023 168.003C45.7435 176.862 35.5885 181.063 31.9282 177.403C28.2679 173.742 32.4694 163.573 41.3283 154.729C50.1871 145.884 60.342 141.654 64.0023 145.329Z" fill="#FFFCF5"/>
<path d="M65.9548 123.715C85.8836 103.786 95.3524 80.9438 87.1039 72.6953C78.8553 64.4468 56.0131 73.9156 36.0843 93.8444C16.1555 113.773 6.68673 136.615 14.9352 144.864C23.1837 153.112 46.026 143.644 65.9548 123.715Z" fill="#FFFCF5"/>
<path d="M249.551 272.115C268.067 253.599 276.864 232.375 269.2 224.711C261.535 217.046 240.312 225.843 221.796 244.359C203.28 262.875 194.483 284.099 202.147 291.763C209.812 299.428 231.035 290.631 249.551 272.115Z" fill="#FFFCF5"/>
<path d="M274.805 177.645C275.702 168.032 262.357 159.13 260.819 150.015C259.224 140.615 268.766 127.754 264.864 119.294C260.961 110.834 244.924 109.609 238.9 102.388C232.875 95.1669 234.769 79.2152 227.064 73.7461C219.359 68.277 205.074 75.3556 196.13 72.0513C187.484 68.861 181.146 54.0915 171.547 53.2085C161.948 52.3254 153.032 65.6564 143.902 67.1946C134.502 68.7898 121.641 59.2473 113.181 63.1497C104.721 67.0522 103.496 83.0892 96.2754 89.1138C89.0544 95.1384 73.1028 93.2441 67.6336 100.949C62.1645 108.655 69.243 122.94 65.9388 131.884C62.7485 140.529 47.9933 146.867 47.096 156.467C46.1987 166.066 59.5439 174.982 61.0821 184.111C62.6773 193.511 53.1348 206.372 57.0372 214.832C60.9397 223.292 76.9768 224.517 83.0014 231.738C89.0259 238.959 87.1317 254.911 94.8369 260.38C102.542 265.849 116.827 258.77 125.772 262.075C134.417 265.265 140.755 280.02 150.368 280.918C159.982 281.815 168.884 268.47 177.999 266.931C187.399 265.336 200.26 274.879 208.72 270.976C217.18 267.074 218.405 251.037 225.626 245.012C232.847 238.988 248.798 240.882 254.267 233.177C259.737 225.472 252.658 211.186 255.962 202.242C259.153 193.597 273.908 187.259 274.805 177.645ZM153.915 242.776C138.943 241.383 124.72 235.583 113.044 226.108C101.368 216.633 92.7629 203.909 88.3171 189.545C83.8713 175.18 83.7841 159.82 88.0665 145.406C92.3489 130.992 100.809 118.171 112.376 108.565C123.944 98.9578 138.1 92.9962 153.055 91.4334C168.011 89.8707 183.094 92.7769 196.397 99.7849C209.701 106.793 220.629 117.588 227.798 130.805C234.968 144.022 238.058 159.069 236.678 174.042C235.763 183.992 232.895 193.663 228.239 202.504C223.583 211.345 217.231 219.181 209.544 225.565C201.857 231.948 192.988 236.754 183.443 239.707C173.897 242.661 163.863 243.704 153.915 242.776Z" fill="#DD4799"/>
<path d="M64.002 145.329C62.008 143.336 58.1199 143.677 53.548 145.814C50.2295 149.061 47.4664 152.479 47.0961 156.467C46.6689 161.053 49.4604 165.468 52.6792 169.827C53.3343 169.243 53.9753 168.644 54.602 168.004C63.4608 159.145 67.6765 148.99 64.002 145.329Z" fill="#F467BC"/>
<path d="M67.6333 100.95C63.8163 106.319 66.209 115.078 66.7503 122.912C76.6061 112.871 83.8413 102.16 87.4304 93.0024C80.0243 94.8825 71.3791 95.7085 67.6333 100.95Z" fill="#F467BC"/>
<path opacity="0.5" d="M160.951 77.5205C143.241 77.5205 125.929 82.7721 111.204 92.6111C96.4784 102.45 85.0016 116.435 78.2243 132.797C71.447 149.158 69.6737 167.162 73.1288 184.532C76.5838 201.902 85.1119 217.857 97.6347 230.379C110.157 242.902 126.112 251.43 143.482 254.885C160.852 258.34 178.856 256.567 195.217 249.79C211.579 243.012 225.564 231.536 235.403 216.81C245.242 202.085 250.493 184.773 250.493 167.063C250.493 143.315 241.06 120.539 224.267 103.747C207.475 86.9544 184.699 77.5205 160.951 77.5205ZM236.678 174.042C235.285 189.016 229.482 203.24 220.005 214.916C210.528 226.592 197.801 235.196 183.434 239.64C169.067 244.083 153.706 244.167 139.291 239.881C124.877 235.595 112.057 227.131 102.452 215.559C92.8479 203.987 86.8904 189.827 85.333 174.87C83.7755 159.912 86.6882 144.829 93.7027 131.526C100.717 118.224 111.518 107.3 124.741 100.137C137.963 92.9726 153.013 89.8901 167.987 91.2788C188.071 93.1451 206.591 102.913 219.473 118.434C232.355 133.955 238.544 153.958 236.678 174.042Z" fill="#B5287C"/>
<path d="M175.634 9.22742C144.416 6.32242 113.038 12.7401 85.4673 27.669C57.8968 42.5978 35.3725 65.3672 20.7428 93.0977C6.11314 120.828 0.0353022 152.274 3.27791 183.459C6.52051 214.644 18.9379 244.167 38.9597 268.294C58.9816 292.422 85.7086 310.07 115.761 319.007C145.813 327.944 177.841 327.769 207.793 318.503C237.746 309.238 264.278 291.298 284.035 266.953C303.791 242.608 315.885 212.951 318.786 181.733C322.676 139.875 309.78 98.1854 282.934 65.835C256.088 33.4846 217.492 13.1225 175.634 9.22742ZM283.023 253.543C275.902 263.627 255.008 261.177 245.551 269.011C236.094 276.844 234.67 297.809 223.432 302.979C212.195 308.149 195.545 295.601 183.254 297.695C171.376 299.718 159.669 317.165 147.107 315.997C134.545 314.829 126.241 295.516 114.933 291.343C103.24 287.07 84.4112 296.185 74.4699 289.135C64.5286 282.085 66.836 261.12 59.0026 251.663C51.1692 242.206 30.2043 240.782 25.02 229.545C19.8357 218.307 32.4118 201.658 30.3181 189.367C28.2957 177.488 10.8487 165.781 12.0166 153.205C13.1845 140.629 32.4973 132.354 36.6703 121.045C40.9431 109.352 31.8279 90.5236 38.8779 80.5824C45.9279 70.6411 66.8929 72.9484 76.3499 65.1008C85.807 57.2532 87.2312 36.3167 98.4686 31.1324C109.706 25.9481 126.355 38.5243 138.647 36.4306C150.525 34.4082 162.232 16.9611 174.808 18.129C187.384 19.2969 195.659 38.6097 206.968 42.7828C218.661 47.0555 237.49 37.9403 247.431 44.9904C257.372 52.0404 255.065 73.0054 262.913 82.4624C270.76 91.9194 291.697 93.3437 296.881 104.581C302.065 115.818 289.489 132.468 291.583 144.759C293.605 156.637 311.052 168.345 309.884 180.907C308.716 193.468 289.404 201.772 285.302 213.08C280.901 224.773 290.073 243.602 283.023 253.543Z" fill="#DD4799"/>
<path d="M14.9358 144.858L15.2776 145.158C21.2452 136.612 33.451 129.761 36.6414 121.045C39.4899 113.482 36.6414 102.943 36.1429 93.7563L36.0575 93.8418C16.118 113.767 6.6894 136.612 14.9358 144.858Z" fill="#F467BC"/>
<path d="M245.551 269.011C241.734 272.187 239.227 277.556 236.849 283.054C241.356 279.742 245.603 276.09 249.553 272.13C252.231 269.452 254.68 266.732 256.931 263.998C252.824 264.84 248.944 266.549 245.551 269.011Z" fill="#F467BC"/>
<path d="M254.268 233.178C256.276 230.329 256.561 226.612 256.319 222.553C246.52 224.703 233.602 232.522 221.795 244.358C212.651 253.502 205.886 263.315 202.297 271.818C204.475 272.113 206.692 271.823 208.72 270.977C217.266 267.018 218.405 251.038 225.626 245.013C232.847 238.989 248.799 240.883 254.268 233.178Z" fill="#F467BC"/>
<path d="M243.272 167.063C243.275 150.781 238.449 134.863 229.405 121.324C220.362 107.784 207.506 97.2305 192.464 90.9975C177.422 84.7646 160.869 83.1323 144.899 86.3071C128.929 89.4819 114.26 97.3212 102.745 108.834C91.2311 120.346 83.3893 135.014 80.2118 150.983C77.0342 166.953 78.6636 183.505 84.894 198.549C91.1243 213.592 101.676 226.45 115.214 235.496C128.752 244.542 144.668 249.37 160.951 249.37C182.781 249.37 203.718 240.699 219.156 225.264C234.594 209.829 243.269 188.894 243.272 167.063ZM85.1805 159.942C86.5745 144.968 92.3775 130.743 101.856 119.067C111.334 107.391 124.061 98.787 138.429 94.344C152.796 89.9009 168.159 89.818 182.573 94.1057C196.988 98.3934 209.808 106.859 219.411 118.432C229.015 130.006 234.971 144.167 236.527 159.125C238.082 174.083 235.168 189.167 228.151 202.468C221.134 215.77 210.331 226.692 197.107 233.855C183.883 241.017 168.832 244.096 153.858 242.705C133.799 240.824 115.306 231.059 102.44 215.555C89.5742 200.051 83.3873 180.075 85.2375 160.013L85.1805 159.942Z" fill="#B5287C"/>
<g opacity="0.5">
<path d="M211.824 306.697C210.571 305.273 209.275 303.991 207.95 302.695C202.595 301.271 196.998 299.091 191.742 298.052C196.998 305.287 201.441 312.593 205.856 319.116C210.091 317.863 214.255 316.439 218.347 314.844C216.333 312.004 214.155 309.284 211.824 306.697Z" fill="#B5287C"/>
<path d="M188.794 303.151C187.527 301.214 186.188 299.348 184.792 297.454C184.279 297.454 183.752 297.553 183.254 297.639C180.291 298.263 177.477 299.453 174.965 301.142C178.668 309.275 181.872 317.037 185.647 323.617C187.569 323.318 189.492 322.976 191.344 322.592L192.155 322.435C194.035 322.065 195.915 321.652 197.767 321.21C195.477 314.867 192.466 308.808 188.794 303.151Z" fill="#B5287C"/>
<path d="M170.322 304.375C166.775 306.982 163.2 309.859 159.611 312.095C161.064 316.748 162.973 321.247 165.308 325.526C168.755 325.421 172.183 325.222 175.591 324.927C174.655 317.892 172.886 310.993 170.322 304.375Z" fill="#DD4799"/>
<path d="M156.193 314.003C153.404 315.487 150.261 316.176 147.107 315.997C145.878 315.876 144.672 315.593 143.518 315.157C145.036 318.655 146.896 321.994 149.072 325.126C152.305 325.383 155.538 325.525 158.743 325.582C158.144 321.671 157.293 317.803 156.193 314.003Z" fill="#DD4799"/>
<path d="M135.912 310.2C128.79 303.82 122.552 294.149 114.933 291.343C114.606 291.217 114.273 291.108 113.936 291.016C119.177 303.179 123.336 314.53 129.844 322.506C133.101 323.142 136.396 323.688 139.729 324.144C138.837 319.4 137.56 314.737 135.912 310.2Z" fill="#DD4799"/>
<path d="M108.794 290.175C104.548 290.099 100.302 290.38 96.1035 291.016C99.5217 300.758 102.726 309.631 107.611 316.367C109.15 316.909 110.688 317.436 112.255 317.934L112.81 318.105C114.348 318.603 115.886 319.059 117.453 319.529C116.291 309.316 113.361 299.384 108.794 290.175Z" fill="#DD4799"/>
<path d="M88.755 291.771C83.3001 292.141 78.244 291.771 74.5125 289.136C68.5021 284.863 66.9497 275.748 65.0127 267.06C58.6463 262.061 51.9239 257.446 45.2441 252.889C63.5315 268.769 71.7495 289.805 81.9328 304.489C84.6959 306.075 87.5064 307.58 90.3644 309.004L90.521 309.075C91.8456 309.745 93.1987 310.386 94.5659 311.012L94.9647 311.197C96.3889 311.838 97.8132 312.465 99.2374 313.063C96.7125 305.528 93.1868 298.367 88.755 291.771Z" fill="#DD4799"/>
</g>
<g opacity="0.5">
<path d="M156.449 8.60061C156.976 13.8419 157.575 19.2825 158.045 24.9225C161.492 22.1692 165.397 20.0432 169.581 18.6416C169.951 15.9213 170.236 13.1867 170.393 10.4379C170.393 9.91094 170.393 9.36971 170.393 8.84273C165.707 8.55788 161.035 8.48667 156.421 8.60061H156.449Z" fill="#B5287C"/>
<path d="M132.038 36.3879C134.228 36.7293 136.457 36.7293 138.647 36.3879C140.415 36.0592 142.127 35.4789 143.731 34.6645C144.937 31.2748 145.986 27.8281 146.879 24.3245C148.135 19.262 148.997 14.1098 149.457 8.91406C148.189 8.99952 146.936 9.09922 145.668 9.2274C144.415 9.34134 143.176 9.48376 141.937 9.62619C140.712 9.76861 139.473 9.92528 138.248 10.1104C137.023 10.2956 135.798 10.4807 134.573 10.6944C133.477 18.6844 132.978 27.3439 132.038 36.3879Z" fill="#B5287C"/>
<path d="M98.4684 31.132C101.565 29.8782 104.96 29.5516 108.239 30.192C109.35 29.2093 110.461 28.2123 111.543 27.1869C116.113 22.8326 120.271 18.0647 123.962 12.9443C121.911 13.4286 119.889 13.9698 117.881 14.5395L117.382 14.6677C115.445 15.2231 113.523 15.8213 111.614 16.448L110.859 16.7044C108.937 17.331 107.042 18.0004 105.162 18.7126L104.764 18.8692C102.798 19.6098 100.861 20.3932 98.9384 21.205C89.2393 34.0232 78.3722 47.9952 62.4775 58.6058C71.023 54.2619 79.5686 49.8609 87.7296 44.9188C90.4214 38.8657 93.4693 33.4393 98.4684 31.132Z" fill="#B5287C"/>
<path d="M182.271 20.9911C183.453 17.516 184.55 14.0123 185.504 10.4659C183.966 10.2238 182.413 10.0101 180.861 9.81075H180.476C178.867 9.59712 177.257 9.4262 175.634 9.26953C175.691 12.232 175.691 15.2372 175.634 18.2851C178.017 18.6937 180.282 19.6171 182.271 20.9911Z" fill="#B5287C"/>
<path d="M217.037 25.9908C217.678 23.8402 218.319 21.7181 218.946 19.5105C218.632 19.3823 218.305 19.2399 217.977 19.126C217.735 21.3905 217.436 23.6835 217.037 25.9908Z" fill="#B5287C"/>
<path d="M197.766 12.873C197.687 20.9285 196.732 28.9515 194.918 36.8005C197.624 29.3089 200.344 21.7604 202.709 14.1406C201.099 13.6849 199.433 13.2718 197.766 12.873Z" fill="#B5287C"/>
</g>
<path d="M157.475 59.3182C157.09 61.8107 156.62 64.3316 156.051 66.8667C157.09 63.947 158.144 61.0273 159.17 58.0791L157.475 59.3182Z" fill="#B5287C"/>
<path d="M127.039 63.9614C125.752 68.4571 124.158 72.859 122.268 77.1357C124.689 73.0197 127.124 68.8893 129.474 64.7163L127.039 63.9614Z" fill="#B5287C"/>
<path d="M99.7072 262.246C97.6847 260.423 95.6528 258.609 93.6113 256.805C95.0356 258.429 96.4598 260.095 97.7132 261.762C98.3637 261.976 99.0306 262.138 99.7072 262.246Z" fill="#B5287C"/>
<path d="M120.317 261.149L116.87 257.716C117.767 258.856 118.622 259.995 119.448 261.163L120.317 261.149Z" fill="#B5287C"/>
<path d="M138.105 258.072C142.971 265.138 146.915 272.796 149.841 280.86L150.368 280.931C152.427 281.072 154.488 280.695 156.364 279.835C150.738 272.229 144.401 265.094 138.105 258.072Z" fill="#B5287C"/>
<path d="M153.758 267.045C156.606 270.117 159.233 273.387 161.62 276.83C162.261 276.388 162.901 275.932 163.528 275.405C160.309 272.614 157.019 269.822 153.758 267.045Z" fill="#B5287C"/>
</svg>
